<svg xmlns="http://www.w3.org/2000/svg" xmlns:xlink="http://www.w3.org/1999/xlink" width="850" zoomAndPan="magnify" viewBox="0 0 637.5 225" height="300" preserveAspectRatio="xMidYMid meet" version="1.0"><defs><g/><clipPath id="5adc1140dc"><path d="M 555 0.0898438 L 636.898438 0.0898438 L 636.898438 112 L 555 112 Z M 555 0.0898438 " clip-rule="nonzero"/></clipPath><clipPath id="9e8487611e"><path d="M 0.75 33.476562 L 585.289062 33.476562 L 585.289062 190.851562 L 0.75 190.851562 Z M 0.75 33.476562 " clip-rule="nonzero"/></clipPath><clipPath id="bd9c912fa3"><path d="M 0 91.179688 L 0 133.222656 C 0 165.503906 26.171875 191.675781 58.453125 191.675781 L 527.535156 191.675781 C 559.816406 191.675781 585.988281 165.503906 585.988281 133.222656 L 585.988281 91.179688 C 585.988281 58.898438 559.816406 32.726562 527.535156 32.726562 L 58.453125 32.726562 C 26.171875 32.726562 0 58.898438 0 91.179688 Z M 0 91.179688 " clip-rule="nonzero"/></clipPath><clipPath id="8d07ff8ec3"><path d="M 59.351562 33.625 L 526.636719 33.625 C 558.917969 33.625 585.089844 59.796875 585.089844 92.082031 L 585.089844 132.324219 C 585.089844 164.605469 558.917969 190.777344 526.636719 190.777344 L 59.351562 190.777344 C 27.070312 190.777344 0.898438 164.605469 0.898438 132.324219 L 0.898438 92.082031 C 0.898438 59.796875 27.070312 33.625 59.351562 33.625 Z M 59.351562 33.625 " clip-rule="nonzero"/></clipPath><clipPath id="e793cd232d"><path d="M 0 32.726562 L 586 32.726562 L 586 191.601562 L 0 191.601562 Z M 0 32.726562 " clip-rule="nonzero"/></clipPath><clipPath id="5c3836caab"><path d="M 0 91.179688 L 0 133.222656 C 0 165.503906 26.171875 191.675781 58.453125 191.675781 L 527.535156 191.675781 C 559.816406 191.675781 585.988281 165.503906 585.988281 133.222656 L 585.988281 91.179688 C 585.988281 58.898438 559.816406 32.726562 527.535156 32.726562 L 58.453125 32.726562 C 26.171875 32.726562 0 58.898438 0 91.179688 Z M 0 91.179688 " clip-rule="nonzero"/></clipPath><clipPath id="295be8e659"><path d="M 0 91.179688 L 0 133.21875 C 0 165.503906 26.171875 191.671875 58.453125 191.671875 L 527.527344 191.671875 C 559.8125 191.671875 585.980469 165.503906 585.980469 133.21875 L 585.980469 91.179688 C 585.980469 58.898438 559.8125 32.726562 527.527344 32.726562 L 58.453125 32.726562 C 26.171875 32.726562 0 58.898438 0 91.179688 Z M 0 91.179688 " clip-rule="nonzero"/></clipPath><clipPath id="d3c70ed3e8"><path d="M 0 32.726562 L 586 32.726562 L 586 191.675781 L 0 191.675781 Z M 0 32.726562 " clip-rule="nonzero"/></clipPath><clipPath id="1446f0ca2e"><path d="M 58.453125 32.726562 L 527.535156 32.726562 C 559.816406 32.726562 585.988281 58.898438 585.988281 91.179688 L 585.988281 133.222656 C 585.988281 165.503906 559.816406 191.675781 527.535156 191.675781 L 58.453125 191.675781 C 26.171875 191.675781 0 165.503906 0 133.222656 L 0 91.179688 C 0 58.898438 26.171875 32.726562 58.453125 32.726562 Z M 58.453125 32.726562 " clip-rule="nonzero"/></clipPath><clipPath id="b22c76e1cb"><path d="M 0 0.726562 L 586 0.726562 L 586 159.675781 L 0 159.675781 Z M 0 0.726562 " clip-rule="nonzero"/></clipPath><clipPath id="211a870b2b"><path d="M 58.453125 0.726562 L 527.535156 0.726562 C 559.816406 0.726562 585.988281 26.898438 585.988281 59.179688 L 585.988281 101.222656 C 585.988281 133.503906 559.816406 159.675781 527.535156 159.675781 L 58.453125 159.675781 C 26.171875 159.675781 0 133.503906 0 101.222656 L 0 59.179688 C 0 26.898438 26.171875 0.726562 58.453125 0.726562 Z M 58.453125 0.726562 " clip-rule="nonzero"/></clipPath><clipPath id="d4e6950c4b"><rect x="0" width="586" y="0" height="160"/></clipPath><clipPath id="48bd6349f6"><path d="M 0.00390625 32.726562 L 586 32.726562 L 586 191.601562 L 0.00390625 191.601562 Z M 0.00390625 32.726562 " clip-rule="nonzero"/></clipPath><clipPath id="19d67a8fd0"><path d="M 58.457031 32.726562 L 527.527344 32.726562 C 559.808594 32.726562 585.976562 58.898438 585.976562 91.179688 L 585.976562 133.21875 C 585.976562 165.503906 559.808594 191.671875 527.527344 191.671875 L 58.457031 191.671875 C 26.171875 191.671875 0.00390625 165.503906 0.00390625 133.21875 L 0.00390625 91.179688 C 0.00390625 58.898438 26.171875 32.726562 58.457031 32.726562 Z M 58.457031 32.726562 " clip-rule="nonzero"/></clipPath><clipPath id="3f9ec280d7"><rect x="0" width="534" y="0" height="96"/></clipPath></defs><path fill="#f1b226" d="M 567.949219 200.53125 C 567.902344 200.03125 567.96875 196.296875 568.011719 195.34375 C 568.1875 191.320312 568.054688 181.570312 568.160156 172.980469 C 568.234375 166.71875 568.542969 160.992188 568.457031 158.617188 C 568.359375 156.101562 568.957031 155.886719 571.34375 155.65625 C 572.433594 155.585938 572.832031 155.753906 573.246094 155.945312 C 573.816406 156.199219 573.847656 157.089844 573.851562 157.304688 C 573.902344 158.628906 574.128906 167.78125 574.214844 172.484375 C 574.449219 185.097656 573.535156 197.414062 573.523438 209.96875 C 573.078125 211.316406 569.21875 211.300781 568.507812 210.023438 C 567.539062 207.035156 568.03125 203.953125 567.949219 200.53125 Z M 567.949219 200.53125 " fill-opacity="1" fill-rule="nonzero"/><path fill="#f1b226" d="M 567.671875 208.800781 C 567.835938 208.390625 567.90625 206.65625 567.917969 206.367188 C 567.949219 205.617188 569.074219 204.027344 570.335938 203.910156 C 571.363281 203.8125 572.300781 204.023438 572.804688 204.488281 C 573.101562 204.761719 573.589844 205.601562 573.554688 206.261719 C 573.457031 208.191406 574.738281 209.222656 575.746094 210.007812 C 576.542969 210.632812 578.140625 211.0625 579.085938 211.40625 C 580.46875 211.910156 582.738281 212.179688 584.558594 212.914062 C 585.027344 212.972656 587.734375 214.484375 587.277344 215.832031 C 587.171875 216.144531 586.949219 216.664062 585.921875 216.785156 C 584.222656 216.976562 582.394531 215.945312 581.304688 216.488281 C 580.695312 216.792969 582.558594 218.367188 583.121094 219.585938 C 583.761719 220.972656 582.34375 221.554688 581.765625 221.535156 C 581.125 221.507812 580.429688 221.207031 579.875 220.890625 C 577.910156 219.695312 576.425781 218.15625 575.636719 218.636719 C 575.160156 218.929688 575.519531 219.6875 575.601562 220.230469 C 575.910156 222.164062 574.640625 224.078125 572.953125 223.117188 C 570.832031 221.910156 570.289062 219.195312 568.730469 217.398438 C 568.253906 216.742188 567.929688 216.066406 567.371094 215.632812 C 567.164062 215.472656 565.902344 214.695312 565.679688 214.617188 C 562.71875 212.957031 566.777344 211.070312 567.671875 208.800781 Z M 567.671875 208.800781 " fill-opacity="1" fill-rule="nonzero"/><path fill="#f1f1f1" d="M 612.140625 118.839844 C 611.6875 125.515625 610.082031 132.167969 607.257812 138.265625 C 606.660156 139.582031 606.023438 140.859375 605.363281 142.136719 C 595.683594 161.4375 579.554688 179.875 561.34375 182 C 559.757812 182.1875 557.925781 182.328125 555.929688 182.390625 L 555.929688 62.320312 C 561.285156 62.199219 566.554688 63.1875 571.378906 65.496094 C 573.4375 66.484375 575.398438 67.703125 577.269531 69.160156 C 578.632812 70.167969 580.070312 71.054688 581.574219 71.839844 C 583.082031 72.601562 584.648438 73.242188 586.25 73.753906 C 588.539062 74.414062 590.675781 75.300781 592.660156 76.390625 C 602.710938 81.847656 609.011719 92.421875 611.296875 104.410156 C 612.183594 109.074219 612.46875 113.953125 612.140625 118.839844 Z M 612.140625 118.839844 " fill-opacity="1" fill-rule="nonzero"/><g clip-path="url(#5adc1140dc)"><path fill="#f1f1f1" d="M 636.628906 27.652344 C 636.589844 34.71875 632.925781 40.875 629.007812 46.503906 C 624.476562 53.488281 619.921875 60.574219 616.773438 68.300781 C 615.644531 71.804688 614.675781 75.347656 613.914062 78.949219 C 612.660156 85.109375 611.6875 90.984375 611.542969 93.886719 C 611.214844 98.316406 611.460938 101.796875 611.296875 104.414062 C 611.011719 108.78125 609.566406 110.820312 602.234375 111.007812 C 590 111.070312 565.242188 95.742188 557.929688 89.746094 C 557.269531 89.292969 556.613281 88.839844 555.933594 88.402344 L 555.933594 54.878906 C 560.402344 50.800781 565.65625 45.445312 567.507812 41.820312 C 572.964844 32.28125 577.003906 21.894531 583.304688 12.855469 C 586.371094 7.847656 590.785156 3.871094 596.28125 1.726562 C 599.164062 0.433594 602.421875 0.203125 605.574219 0.203125 C 605.902344 0.179688 606.273438 0.203125 606.601562 0.222656 C 612.308594 0.179688 618.074219 1.273438 623.101562 4.03125 C 630.023438 8.910156 630.207031 9.242188 633.625 15.773438 C 635.535156 19.433594 636.855469 23.46875 636.628906 27.652344 Z M 636.628906 27.652344 " fill-opacity="1" fill-rule="nonzero"/></g><path fill="#f1b226" d="M 609.378906 46.03125 C 607.683594 49.285156 604.582031 51.804688 601.683594 53.9375 C 600.613281 54.730469 599.589844 55.3125 598.613281 55.710938 C 598.4375 55.796875 598.242188 55.863281 598.039062 55.914062 C 595.785156 56.683594 593.792969 56.410156 592.25 55.296875 C 589.515625 54.382812 587.742188 51.53125 587.816406 46.835938 C 587.835938 43.097656 588.113281 38.925781 589.945312 35.597656 C 590.394531 34.746094 590.957031 33.964844 591.644531 33.253906 C 592.679688 32.28125 594.0625 32.132812 595.425781 32.054688 C 595.910156 32.023438 596.394531 32 596.84375 31.972656 C 598.316406 31.917969 599.757812 31.558594 601.207031 31.472656 C 601.753906 31.445312 603.414062 31.613281 604.242188 32.039062 C 605.0625 32.460938 605.871094 33.308594 606.613281 34.578125 C 607.253906 35.664062 607.765625 36.847656 608.460938 37.917969 C 608.714844 38.304688 608.988281 38.722656 609.238281 39.140625 C 609.976562 40.292969 610.652344 41.496094 610.484375 42.898438 C 610.261719 44.015625 609.894531 45.054688 609.378906 46.03125 Z M 609.378906 46.03125 " fill-opacity="1" fill-rule="nonzero"/><path fill="#000000" d="M 622.304688 27.5625 C 622.605469 27.71875 622.886719 27.898438 623.148438 28.109375 C 623.414062 28.324219 623.652344 28.558594 623.867188 28.820312 C 624.085938 29.078125 624.273438 29.359375 624.4375 29.660156 C 624.597656 29.960938 624.726562 30.273438 624.828125 30.601562 C 624.929688 30.929688 624.996094 31.265625 625.03125 31.609375 C 625.066406 31.949219 625.066406 32.296875 625.035156 32.640625 C 625.003906 32.984375 624.9375 33.324219 624.84375 33.660156 C 624.746094 33.992188 624.617188 34.316406 624.457031 34.625 C 624.300781 34.9375 624.113281 35.226562 623.898438 35.503906 C 623.683594 35.777344 623.449219 36.027344 623.1875 36.253906 C 622.925781 36.484375 622.644531 36.683594 622.347656 36.855469 C 622.046875 37.027344 621.734375 37.167969 621.410156 37.28125 C 621.085938 37.390625 620.757812 37.46875 620.417969 37.511719 C 620.082031 37.558594 619.742188 37.566406 619.40625 37.542969 C 619.066406 37.519531 618.734375 37.464844 618.410156 37.375 C 618.085938 37.285156 617.773438 37.164062 617.472656 37.007812 C 617.171875 36.855469 616.890625 36.671875 616.625 36.460938 C 616.363281 36.25 616.125 36.015625 615.90625 35.753906 C 615.691406 35.492188 615.5 35.214844 615.339844 34.914062 C 615.179688 34.613281 615.046875 34.300781 614.949219 33.972656 C 614.847656 33.644531 614.78125 33.308594 614.746094 32.964844 C 614.710938 32.621094 614.707031 32.277344 614.742188 31.933594 C 614.773438 31.585938 614.835938 31.246094 614.933594 30.914062 C 615.03125 30.578125 615.160156 30.257812 615.316406 29.945312 C 615.476562 29.636719 615.660156 29.34375 615.875 29.070312 C 616.089844 28.796875 616.328125 28.546875 616.589844 28.316406 C 616.851562 28.089844 617.128906 27.890625 617.429688 27.71875 C 617.726562 27.546875 618.039062 27.402344 618.363281 27.292969 C 618.6875 27.183594 619.019531 27.105469 619.355469 27.058594 C 619.695312 27.015625 620.03125 27.003906 620.371094 27.027344 C 620.707031 27.050781 621.039062 27.109375 621.367188 27.199219 C 621.691406 27.289062 622.003906 27.410156 622.304688 27.5625 Z M 622.304688 27.5625 " fill-opacity="1" fill-rule="nonzero"/><path fill="#ffffff" d="M 621.164062 29.152344 C 621.164062 29.273438 621.132812 29.386719 621.058594 29.5 C 620.988281 29.613281 620.882812 29.714844 620.75 29.804688 C 620.613281 29.894531 620.457031 29.960938 620.28125 30.011719 C 620.101562 30.0625 619.917969 30.089844 619.722656 30.09375 C 619.53125 30.097656 619.34375 30.078125 619.164062 30.035156 C 618.984375 29.992188 618.824219 29.929688 618.6875 29.847656 C 618.546875 29.765625 618.441406 29.667969 618.363281 29.558594 C 618.289062 29.449219 618.25 29.335938 618.246094 29.214844 C 618.242188 29.09375 618.277344 28.976562 618.347656 28.863281 C 618.421875 28.75 618.523438 28.648438 618.660156 28.558594 C 618.792969 28.472656 618.949219 28.402344 619.128906 28.351562 C 619.304688 28.300781 619.492188 28.273438 619.683594 28.269531 C 619.878906 28.265625 620.066406 28.285156 620.246094 28.328125 C 620.425781 28.371094 620.582031 28.433594 620.722656 28.515625 C 620.859375 28.597656 620.96875 28.695312 621.042969 28.804688 C 621.121094 28.914062 621.160156 29.03125 621.164062 29.152344 Z M 621.164062 29.152344 " fill-opacity="1" fill-rule="nonzero"/><path fill="#000000" d="M 598.957031 15.617188 C 599.257812 15.769531 599.539062 15.953125 599.804688 16.164062 C 600.066406 16.375 600.308594 16.613281 600.523438 16.871094 C 600.742188 17.132812 600.929688 17.414062 601.089844 17.710938 C 601.253906 18.011719 601.382812 18.328125 601.484375 18.65625 C 601.582031 18.980469 601.652344 19.316406 601.683594 19.660156 C 601.71875 20.003906 601.722656 20.347656 601.691406 20.695312 C 601.660156 21.039062 601.59375 21.378906 601.496094 21.710938 C 601.398438 22.046875 601.273438 22.367188 601.113281 22.679688 C 600.953125 22.988281 600.769531 23.28125 600.554688 23.554688 C 600.339844 23.828125 600.101562 24.082031 599.839844 24.308594 C 599.578125 24.535156 599.300781 24.734375 599 24.90625 C 598.703125 25.082031 598.390625 25.222656 598.066406 25.332031 C 597.742188 25.445312 597.410156 25.519531 597.074219 25.566406 C 596.734375 25.609375 596.398438 25.621094 596.058594 25.597656 C 595.722656 25.574219 595.390625 25.519531 595.066406 25.425781 C 594.738281 25.335938 594.425781 25.214844 594.128906 25.0625 C 593.828125 24.910156 593.546875 24.726562 593.28125 24.515625 C 593.019531 24.304688 592.777344 24.066406 592.5625 23.808594 C 592.34375 23.546875 592.15625 23.265625 591.996094 22.964844 C 591.832031 22.667969 591.703125 22.351562 591.601562 22.023438 C 591.503906 21.695312 591.433594 21.359375 591.398438 21.019531 C 591.367188 20.675781 591.363281 20.332031 591.394531 19.984375 C 591.425781 19.640625 591.492188 19.300781 591.589844 18.964844 C 591.6875 18.632812 591.8125 18.308594 591.972656 18 C 592.128906 17.691406 592.316406 17.398438 592.53125 17.125 C 592.746094 16.851562 592.984375 16.597656 593.246094 16.371094 C 593.507812 16.144531 593.785156 15.941406 594.085938 15.769531 C 594.382812 15.597656 594.695312 15.457031 595.019531 15.347656 C 595.34375 15.234375 595.675781 15.15625 596.011719 15.113281 C 596.351562 15.070312 596.6875 15.058594 597.027344 15.082031 C 597.363281 15.105469 597.695312 15.160156 598.019531 15.25 C 598.347656 15.339844 598.660156 15.464844 598.957031 15.617188 Z M 598.957031 15.617188 " fill-opacity="1" fill-rule="nonzero"/><path fill="#ffffff" d="M 599.910156 18.128906 C 600.019531 18.289062 600.105469 18.453125 600.167969 18.628906 C 600.234375 18.800781 600.269531 18.96875 600.277344 19.128906 C 600.28125 19.289062 600.261719 19.433594 600.210938 19.558594 C 600.160156 19.683594 600.085938 19.777344 599.988281 19.847656 C 599.886719 19.914062 599.773438 19.949219 599.636719 19.953125 C 599.503906 19.957031 599.363281 19.925781 599.214844 19.859375 C 599.066406 19.796875 598.921875 19.703125 598.785156 19.582031 C 598.644531 19.460938 598.519531 19.320312 598.410156 19.164062 C 598.300781 19.003906 598.214844 18.835938 598.148438 18.664062 C 598.085938 18.488281 598.050781 18.324219 598.042969 18.160156 C 598.035156 18 598.058594 17.859375 598.109375 17.734375 C 598.15625 17.609375 598.234375 17.511719 598.332031 17.445312 C 598.429688 17.375 598.546875 17.339844 598.683594 17.335938 C 598.816406 17.335938 598.957031 17.367188 599.105469 17.429688 C 599.253906 17.496094 599.398438 17.585938 599.535156 17.707031 C 599.675781 17.828125 599.800781 17.96875 599.910156 18.128906 Z M 599.910156 18.128906 " fill-opacity="1" fill-rule="nonzero"/><path fill="#cccdcc" d="M 537.214844 120.332031 C 536.519531 121.289062 536.710938 122.335938 537.453125 122.515625 C 538.714844 122.664062 540.328125 122.289062 541.714844 122.011719 C 540.84375 122.585938 539.917969 123.214844 539.425781 123.605469 C 534.957031 127.367188 542.640625 126.917969 546.132812 126.292969 C 545.335938 126.714844 544.519531 127.136719 543.933594 127.476562 C 543.101562 127.886719 541.976562 128.976562 542.488281 129.632812 C 542.992188 130.117188 543.988281 129.902344 544.785156 129.902344 C 546.667969 129.851562 549.605469 129.363281 551.523438 129.046875 C 550.675781 129.621094 549.644531 130.324219 549.105469 130.675781 C 548.113281 131.265625 546.480469 132.761719 547.242188 133.523438 C 548.199219 133.921875 549.636719 133.488281 550.820312 133.445312 C 552.308594 133.308594 554.78125 132.773438 556.125 132.550781 C 552.40625 135.652344 547.257812 139.09375 554.0625 138.421875 C 555.605469 138.386719 558.003906 137.828125 559.382812 137.625 C 558.769531 138.085938 557.910156 138.695312 557.386719 139.238281 C 556.496094 140.066406 556.40625 141.300781 557.382812 141.21875 C 561.277344 140.757812 565.378906 139.617188 569.46875 138.269531 C 562.230469 144.203125 570.441406 142.128906 574.316406 140.933594 C 575.171875 140.664062 576.371094 140.136719 577.367188 139.683594 C 575.851562 141.386719 574.269531 143.546875 576.230469 143.789062 C 577.066406 143.746094 577.976562 143.3125 578.867188 142.910156 C 584 140.542969 589.074219 137.28125 594.121094 134.148438 C 594.925781 133.636719 595.863281 133.019531 596.851562 132.355469 C 600.878906 129.65625 604.855469 126.671875 608.25 122.898438 C 609.867188 120.96875 611.296875 118.863281 612.421875 116.714844 C 612.433594 116.699219 612.433594 116.699219 612.433594 116.699219 C 613.414062 114.859375 614.171875 112.992188 614.632812 111.179688 C 614.890625 110.441406 615.09375 109.707031 615.265625 108.996094 C 617.121094 99.886719 610.691406 95.121094 603.414062 94.5625 C 593.027344 94.492188 580.445312 100.390625 569.222656 105.445312 C 559.992188 109.601562 551.328125 111.585938 542.917969 116.160156 C 542.316406 116.484375 541.714844 116.832031 541.113281 117.179688 C 539.800781 118.089844 538.292969 119.007812 537.214844 120.332031 Z M 537.214844 120.332031 " fill-opacity="1" fill-rule="nonzero"/><path fill="#b0b0b0" d="M 537.214844 120.332031 C 536.519531 121.289062 536.710938 122.335938 537.453125 122.515625 C 538.714844 122.664062 540.328125 122.289062 541.714844 122.011719 C 540.84375 122.585938 539.917969 123.214844 539.425781 123.605469 C 534.957031 127.367188 542.640625 126.917969 546.132812 126.292969 C 545.335938 126.714844 544.519531 127.136719 543.933594 127.476562 C 543.101562 127.886719 541.976562 128.976562 542.488281 129.632812 C 542.992188 130.117188 543.988281 129.902344 544.785156 129.902344 C 546.667969 129.851562 549.605469 129.363281 551.523438 129.046875 C 550.675781 129.621094 549.644531 130.324219 549.105469 130.675781 C 548.113281 131.265625 546.480469 132.761719 547.242188 133.523438 C 548.199219 133.921875 549.636719 133.488281 550.820312 133.445312 C 552.308594 133.308594 554.78125 132.773438 556.125 132.550781 C 552.40625 135.652344 547.257812 139.09375 554.0625 138.421875 C 555.605469 138.386719 558.003906 137.828125 559.382812 137.625 C 558.769531 138.085938 557.910156 138.695312 557.386719 139.238281 C 556.496094 140.066406 556.40625 141.300781 557.382812 141.21875 C 561.277344 140.757812 565.378906 139.617188 569.46875 138.269531 C 562.230469 144.203125 570.441406 142.128906 574.316406 140.933594 C 575.171875 140.664062 576.371094 140.136719 577.367188 139.683594 C 575.851562 141.386719 574.269531 143.546875 576.230469 143.789062 C 577.066406 143.746094 577.976562 143.3125 578.867188 142.910156 C 584 140.542969 589.074219 137.28125 594.121094 134.148438 C 594.925781 133.636719 595.863281 133.019531 596.851562 132.355469 C 596.917969 132.308594 596.984375 132.261719 597.054688 132.21875 C 601.816406 128.988281 592.167969 133.476562 589.5625 134.542969 C 588.101562 135.136719 586.386719 135.671875 584.984375 136.074219 C 583.664062 136.453125 582.867188 136.542969 583.15625 134.976562 C 583.207031 134.707031 583.207031 134.402344 583.136719 134.246094 C 582.675781 133.28125 581.042969 134.527344 580.019531 134.960938 C 578.042969 136.023438 575.566406 136.898438 574.695312 136.78125 C 574.640625 136.773438 574.601562 136.742188 574.558594 136.726562 C 574.613281 136.578125 574.671875 136.4375 574.738281 136.292969 C 576.359375 133.625 575.992188 132.886719 572.75 134.019531 C 569.910156 134.988281 565.132812 136.535156 565.292969 135.910156 C 565.296875 135.886719 565.296875 135.886719 565.300781 135.867188 C 565.417969 135.652344 565.375 135.703125 565.746094 135.15625 C 566.816406 133.941406 566.980469 132.53125 565.609375 132.671875 C 563.511719 133.078125 560.414062 133.839844 559.96875 133.585938 L 559.925781 133.546875 C 559.933594 133.527344 559.941406 133.511719 559.96875 133.4375 C 559.953125 133.421875 561.128906 131.734375 561.5 131.125 C 563.164062 128.46875 561.277344 128.445312 559.421875 128.894531 C 558.625 128.992188 557.199219 129.335938 555.984375 129.296875 C 555.929688 129.292969 555.863281 129.285156 555.816406 129.269531 L 555.753906 129.214844 C 555.738281 129.179688 555.71875 129.136719 555.710938 129.097656 C 555.699219 129.09375 555.699219 129.09375 555.699219 129.0625 C 555.613281 128.785156 556.332031 127.804688 556.859375 126.445312 C 557.203125 125.339844 556.210938 125.1875 555.355469 125.355469 C 554.238281 125.484375 554.105469 125.636719 552.332031 125.734375 C 551.511719 125.761719 550.886719 125.792969 550.519531 125.652344 C 550.507812 125.644531 550.503906 125.636719 550.503906 125.636719 C 550.507812 125.617188 550.496094 125.605469 550.492188 125.582031 C 550.496094 125.5625 550.511719 125.523438 550.507812 125.496094 C 550.539062 125.429688 550.59375 125.300781 550.632812 125.207031 C 550.722656 125.089844 551.269531 124.25 551.484375 123.875 C 553.066406 120.820312 548.515625 122.25 547.074219 122.03125 C 545.945312 122.007812 545.546875 121.941406 545.546875 121.585938 C 545.546875 121.585938 545.546875 121.585938 545.554688 121.566406 C 545.703125 121.183594 545.59375 121.402344 545.90625 120.921875 C 546.121094 120.445312 546.914062 119.980469 546.976562 119.0625 C 546.761719 118.050781 545.113281 118.613281 544.214844 118.539062 C 542.738281 118.617188 542.332031 118.742188 542.183594 118.234375 C 542.175781 118.175781 542.164062 118.140625 542.160156 118.109375 C 542.167969 118.09375 542.160156 118.058594 542.164062 117.96875 C 542.167969 117.894531 542.179688 117.835938 542.191406 117.769531 C 542.199219 117.753906 542.199219 117.753906 542.199219 117.753906 C 542.230469 117.65625 542.292969 117.511719 542.339844 117.429688 C 542.578125 117.03125 542.835938 116.542969 542.925781 116.15625 C 542.328125 116.476562 541.722656 116.824219 541.125 117.175781 C 539.800781 118.089844 538.292969 119.007812 537.214844 120.332031 Z M 537.214844 120.332031 " fill-opacity="1" fill-rule="nonzero"/><path fill="#daa32b" d="M 609.378906 46.03125 C 607.683594 49.285156 604.582031 51.804688 601.683594 53.9375 C 600.613281 54.730469 599.589844 55.3125 598.613281 55.710938 C 598.4375 55.796875 598.242188 55.863281 598.039062 55.914062 C 595.785156 56.683594 593.792969 56.410156 592.25 55.296875 C 589.515625 54.382812 587.742188 51.53125 587.816406 46.835938 C 587.835938 43.097656 588.113281 38.925781 589.945312 35.597656 C 589.683594 37.144531 589.445312 38.640625 589.417969 39.851562 C 588.855469 45.1875 589.289062 54.121094 594.402344 54.203125 C 599.015625 54.414062 604.253906 50.113281 607.742188 47.488281 C 608.308594 47.019531 608.84375 46.539062 609.378906 46.03125 Z M 609.378906 46.03125 " fill-opacity="1" fill-rule="nonzero"/><path fill="#999999" d="M 540.632812 116.015625 C 541.691406 115.042969 543.214844 115.453125 542.742188 116.953125 C 542.054688 117.804688 540.867188 118.136719 540.085938 118.917969 C 539.769531 119.269531 538.507812 120.21875 538.308594 121.023438 C 538.300781 121.058594 538.292969 121.070312 538.285156 121.089844 C 538.277344 121.105469 538.277344 121.113281 538.273438 121.132812 C 538.257812 121.207031 538.253906 121.222656 538.246094 121.261719 C 538.246094 121.3125 538.253906 121.347656 538.253906 121.371094 C 538.300781 121.398438 538.339844 121.417969 538.386719 121.4375 C 539.609375 121.710938 540.054688 121.003906 541.554688 121.339844 C 542.605469 121.972656 542.113281 123.066406 541.226562 123.570312 C 540.246094 124.363281 540.097656 124.363281 539.628906 125.257812 C 539.628906 125.265625 539.625 125.269531 539.625 125.273438 C 539.640625 125.285156 539.652344 125.300781 539.664062 125.316406 C 539.757812 125.371094 539.855469 125.425781 539.957031 125.46875 C 540.207031 125.519531 540.90625 125.6875 541.074219 125.664062 C 541.789062 125.78125 543.371094 125.75 544.285156 125.46875 C 544.945312 125.375 545.65625 124.929688 546.308594 125.226562 C 546.8125 125.464844 547.023438 126.144531 546.765625 126.621094 C 546.429688 127.164062 545.773438 127.382812 545.296875 127.78125 C 544.820312 128.109375 544.253906 128.636719 543.917969 129.09375 C 544.0625 129.160156 544.105469 129.140625 544.671875 129.273438 C 544.917969 129.5 548.671875 129.128906 547.980469 129.15625 C 549.664062 129.03125 551.792969 127.199219 552.5 129.113281 C 552.65625 130.515625 550.585938 130.640625 549.332031 131.765625 C 549.269531 131.816406 549.257812 131.824219 549.242188 131.839844 C 549.171875 131.90625 549.09375 131.972656 549.027344 132.042969 C 548.910156 132.144531 548.695312 132.425781 548.613281 132.535156 C 548.605469 132.550781 548.597656 132.558594 548.59375 132.570312 C 548.902344 132.703125 549.101562 132.6875 549.488281 132.707031 C 549.984375 132.75 552.203125 132.4375 552.480469 132.402344 C 553.707031 132.261719 554.9375 131.558594 556.167969 131.792969 C 556.828125 131.980469 557.113281 132.863281 556.6875 133.40625 C 555.128906 134.746094 553.195312 135.714844 552.347656 136.800781 C 552.335938 136.820312 552.324219 136.832031 552.308594 136.863281 C 552.273438 136.929688 552.25 136.996094 552.21875 137.0625 C 552.207031 137.097656 552.207031 137.136719 552.203125 137.171875 C 552.222656 137.183594 552.238281 137.195312 552.257812 137.199219 C 552.417969 137.238281 552.582031 137.269531 552.746094 137.292969 C 554.578125 137.542969 558.4375 136.789062 558.652344 136.734375 C 559.570312 136.371094 560.625 137.21875 560.152344 138.183594 C 559.859375 138.675781 559.367188 138.894531 558.964844 139.261719 C 558.8125 139.40625 558.652344 139.527344 558.503906 139.667969 C 561.5 139.738281 565.515625 138.398438 569.191406 137.167969 C 570.042969 136.871094 570.917969 137.820312 570.476562 138.632812 C 570.039062 139.253906 569.335938 139.675781 568.8125 140.234375 C 568.707031 140.324219 568.539062 140.53125 568.457031 140.628906 C 568.429688 140.671875 568.398438 140.71875 568.378906 140.757812 C 568.523438 140.785156 568.644531 140.796875 568.699219 140.808594 C 568.699219 140.808594 568.699219 140.808594 568.707031 140.808594 C 571.171875 140.867188 573.957031 139.675781 576.886719 138.785156 C 577.746094 138.734375 578.300781 139.730469 577.871094 140.460938 C 577.433594 141.132812 577.039062 141.75 576.871094 142.191406 C 576.875 142.191406 576.882812 142.191406 576.886719 142.195312 C 580.140625 142.222656 585.785156 138.695312 590.046875 135.828125 C 592.800781 134.261719 595.847656 131.488281 597.75 130.339844 C 598.800781 130.085938 599.4375 131.664062 598.484375 132.210938 C 595.859375 134.492188 590.484375 138.105469 586.644531 140.472656 C 583.691406 142.171875 580.566406 144.003906 577.097656 144.253906 C 575.457031 144.351562 574.378906 143.140625 574.894531 141.628906 C 572.785156 142.34375 569.890625 143.101562 567.882812 142.765625 C 566.382812 142.472656 566.035156 141.347656 566.382812 140.261719 C 563.648438 141.101562 560.238281 141.914062 557.625 141.730469 C 556.019531 141.46875 555.828125 140.269531 556.332031 139.195312 C 555.695312 139.277344 554.996094 139.351562 554.300781 139.386719 C 553.132812 139.386719 551.804688 139.476562 550.832031 138.726562 C 549.421875 137.238281 550.320312 135.8125 551.617188 134.632812 C 549.925781 134.886719 548.136719 134.886719 547.03125 133.980469 C 546.429688 133.382812 546.300781 132.410156 546.734375 131.679688 C 546.808594 131.558594 546.910156 131.464844 546.992188 131.347656 C 546.035156 131.453125 545.039062 131.46875 544.125 131.257812 C 542.488281 131.054688 540.988281 129.734375 542.113281 128.078125 C 542.195312 127.960938 542.292969 127.863281 542.382812 127.753906 C 541.714844 127.773438 541.042969 127.753906 540.371094 127.644531 C 539.40625 127.542969 538.40625 127.179688 537.847656 126.335938 C 537.28125 125.308594 537.652344 124.332031 538.324219 123.492188 C 537.796875 123.425781 537.285156 123.265625 536.875 122.902344 C 536.246094 122.34375 536.0625 121.414062 536.292969 120.621094 C 536.9375 118.535156 538.871094 117.167969 540.632812 116.015625 Z M 540.632812 116.015625 " fill-opacity="1" fill-rule="nonzero"/><g clip-path="url(#9e8487611e)"><g clip-path="url(#bd9c912fa3)"><g clip-path="url(#8d07ff8ec3)"><path fill="#7ebdeb" d="M 79.972656 32.726562 L 506 32.726562 C 507.300781 32.726562 508.597656 32.757812 509.898438 32.824219 C 511.199219 32.886719 512.492188 32.980469 513.789062 33.109375 C 515.082031 33.238281 516.375 33.394531 517.660156 33.585938 C 518.945312 33.777344 520.226562 34 521.503906 34.253906 C 522.777344 34.507812 524.046875 34.792969 525.308594 35.109375 C 526.570312 35.425781 527.824219 35.773438 529.070312 36.148438 C 530.3125 36.527344 531.546875 36.933594 532.773438 37.371094 C 533.996094 37.8125 535.210938 38.277344 536.410156 38.777344 C 537.613281 39.273438 538.800781 39.800781 539.976562 40.355469 C 541.152344 40.914062 542.316406 41.496094 543.460938 42.109375 C 544.609375 42.722656 545.742188 43.363281 546.855469 44.035156 C 547.972656 44.703125 549.070312 45.398438 550.152344 46.121094 C 551.234375 46.84375 552.296875 47.589844 553.339844 48.367188 C 554.386719 49.140625 555.410156 49.941406 556.414062 50.765625 C 557.421875 51.589844 558.40625 52.441406 559.371094 53.3125 C 560.332031 54.1875 561.273438 55.082031 562.195312 56.003906 C 563.113281 56.921875 564.011719 57.863281 564.882812 58.828125 C 565.757812 59.792969 566.605469 60.777344 567.433594 61.78125 C 568.257812 62.789062 569.058594 63.8125 569.832031 64.855469 C 570.605469 65.902344 571.355469 66.964844 572.078125 68.046875 C 572.800781 69.128906 573.496094 70.226562 574.164062 71.34375 C 574.832031 72.457031 575.472656 73.589844 576.085938 74.734375 C 576.699219 75.882812 577.285156 77.042969 577.839844 78.21875 C 578.398438 79.394531 578.925781 80.585938 579.421875 81.785156 C 579.917969 82.988281 580.386719 84.199219 580.824219 85.425781 C 581.265625 86.648438 581.671875 87.882812 582.050781 89.128906 C 582.425781 90.375 582.773438 91.625 583.089844 92.886719 C 583.40625 94.148438 583.691406 95.417969 583.945312 96.695312 C 584.199219 97.96875 584.421875 99.25 584.609375 100.539062 C 584.800781 101.824219 584.960938 103.113281 585.089844 104.410156 C 585.214844 105.703125 585.3125 107 585.375 108.296875 C 585.441406 109.597656 585.472656 110.898438 585.472656 112.199219 C 585.472656 113.5 585.441406 114.796875 585.375 116.097656 C 585.3125 117.398438 585.214844 118.691406 585.089844 119.988281 C 584.960938 121.28125 584.800781 122.574219 584.609375 123.859375 C 584.421875 125.144531 584.199219 126.425781 583.945312 127.703125 C 583.691406 128.976562 583.40625 130.246094 583.089844 131.507812 C 582.773438 132.769531 582.425781 134.023438 582.050781 135.265625 C 581.671875 136.511719 581.265625 137.746094 580.824219 138.972656 C 580.386719 140.195312 579.917969 141.410156 579.421875 142.609375 C 578.925781 143.8125 578.398438 145 577.839844 146.175781 C 577.285156 147.351562 576.699219 148.511719 576.085938 149.660156 C 575.472656 150.808594 574.832031 151.9375 574.164062 153.054688 C 573.496094 154.167969 572.800781 155.269531 572.078125 156.351562 C 571.355469 157.429688 570.605469 158.496094 569.832031 159.539062 C 569.058594 160.582031 568.257812 161.609375 567.433594 162.613281 C 566.605469 163.621094 565.757812 164.605469 564.882812 165.566406 C 564.011719 166.53125 563.113281 167.472656 562.195312 168.390625 C 561.273438 169.3125 560.332031 170.207031 559.371094 171.082031 C 558.40625 171.957031 557.421875 172.804688 556.414062 173.628906 C 555.410156 174.453125 554.386719 175.253906 553.339844 176.03125 C 552.296875 176.804688 551.234375 177.554688 550.152344 178.277344 C 549.070312 179 547.972656 179.695312 546.855469 180.363281 C 545.742188 181.03125 544.609375 181.671875 543.460938 182.285156 C 542.316406 182.898438 541.152344 183.484375 539.976562 184.039062 C 538.800781 184.59375 537.613281 185.121094 536.410156 185.621094 C 535.210938 186.117188 533.996094 186.585938 532.773438 187.023438 C 531.546875 187.460938 530.3125 187.871094 529.070312 188.246094 C 527.824219 188.625 526.570312 188.972656 525.308594 189.289062 C 524.046875 189.601562 522.777344 189.886719 521.503906 190.140625 C 520.226562 190.394531 518.945312 190.617188 517.660156 190.808594 C 516.375 191 515.082031 191.160156 513.789062 191.285156 C 512.492188 191.414062 511.199219 191.507812 509.898438 191.574219 C 508.597656 191.636719 507.300781 191.667969 506 191.667969 L 79.972656 191.667969 C 78.671875 191.667969 77.371094 191.636719 76.070312 191.574219 C 74.773438 191.507812 73.476562 191.414062 72.183594 191.285156 C 70.886719 191.160156 69.597656 191 68.308594 190.808594 C 67.023438 190.617188 65.742188 190.394531 64.46875 190.140625 C 63.191406 189.886719 61.921875 189.601562 60.660156 189.289062 C 59.398438 188.972656 58.144531 188.625 56.902344 188.246094 C 55.65625 187.871094 54.421875 187.460938 53.199219 187.023438 C 51.972656 186.585938 50.761719 186.117188 49.558594 185.621094 C 48.355469 185.121094 47.167969 184.59375 45.992188 184.039062 C 44.816406 183.484375 43.65625 182.898438 42.507812 182.285156 C 41.359375 181.671875 40.230469 181.03125 39.113281 180.363281 C 38 179.695312 36.898438 179 35.820312 178.277344 C 34.738281 177.554688 33.675781 176.804688 32.628906 176.03125 C 31.585938 175.253906 30.558594 174.453125 29.554688 173.628906 C 28.550781 172.804688 27.566406 171.957031 26.601562 171.082031 C 25.636719 170.207031 24.695312 169.3125 23.777344 168.390625 C 22.855469 167.472656 21.960938 166.53125 21.085938 165.566406 C 20.210938 164.605469 19.363281 163.621094 18.539062 162.613281 C 17.714844 161.609375 16.914062 160.582031 16.136719 159.539062 C 15.363281 158.496094 14.613281 157.429688 13.890625 156.351562 C 13.167969 155.269531 12.472656 154.167969 11.804688 153.054688 C 11.136719 151.9375 10.496094 150.808594 9.882812 149.660156 C 9.269531 148.511719 8.683594 147.351562 8.128906 146.175781 C 7.574219 145 7.046875 143.8125 6.546875 142.609375 C 6.050781 141.410156 5.582031 140.195312 5.144531 138.972656 C 4.707031 137.746094 4.296875 136.511719 3.921875 135.265625 C 3.542969 134.023438 3.195312 132.769531 2.878906 131.507812 C 2.5625 130.246094 2.28125 128.976562 2.027344 127.703125 C 1.773438 126.425781 1.550781 125.144531 1.359375 123.859375 C 1.167969 122.574219 1.007812 121.28125 0.882812 119.988281 C 0.753906 118.691406 0.660156 117.398438 0.59375 116.097656 C 0.53125 114.796875 0.5 113.5 0.5 112.199219 C 0.5 110.898438 0.53125 109.597656 0.59375 108.296875 C 0.660156 107 0.753906 105.703125 0.882812 104.410156 C 1.007812 103.113281 1.167969 101.824219 1.359375 100.539062 C 1.550781 99.25 1.773438 97.96875 2.027344 96.695312 C 2.28125 95.417969 2.5625 94.148438 2.878906 92.886719 C 3.195312 91.625 3.542969 90.375 3.921875 89.128906 C 4.296875 87.882812 4.707031 86.648438 5.144531 85.425781 C 5.582031 84.199219 6.050781 82.988281 6.546875 81.785156 C 7.046875 80.585938 7.574219 79.394531 8.128906 78.21875 C 8.683594 77.042969 9.269531 75.882812 9.882812 74.734375 C 10.496094 73.589844 11.136719 72.457031 11.804688 71.34375 C 12.472656 70.226562 13.167969 69.128906 13.890625 68.046875 C 14.613281 66.964844 15.363281 65.902344 16.136719 64.855469 C 16.914062 63.8125 17.714844 62.789062 18.539062 61.78125 C 19.363281 60.777344 20.210938 59.792969 21.085938 58.828125 C 21.960938 57.863281 22.855469 56.921875 23.777344 56.003906 C 24.695312 55.082031 25.636719 54.1875 26.601562 53.3125 C 27.566406 52.441406 28.550781 51.589844 29.554688 50.765625 C 30.558594 49.941406 31.585938 49.140625 32.628906 48.367188 C 33.675781 47.589844 34.738281 46.84375 35.820312 46.121094 C 36.898438 45.398438 38 44.703125 39.113281 44.035156 C 40.230469 43.363281 41.359375 42.722656 42.507812 42.109375 C 43.65625 41.496094 44.816406 40.914062 45.992188 40.355469 C 47.167969 39.800781 48.355469 39.273438 49.558594 38.777344 C 50.761719 38.277344 51.972656 37.8125 53.199219 37.371094 C 54.421875 36.933594 55.65625 36.527344 56.902344 36.148438 C 58.144531 35.773438 59.398438 35.425781 60.660156 35.109375 C 61.921875 34.792969 63.191406 34.507812 64.46875 34.253906 C 65.742188 34 67.023438 33.777344 68.308594 33.585938 C 69.597656 33.394531 70.886719 33.238281 72.183594 33.109375 C 73.476562 32.980469 74.773438 32.886719 76.070312 32.824219 C 77.371094 32.757812 78.671875 32.726562 79.972656 32.726562 Z M 79.972656 32.726562 " fill-opacity="1" fill-rule="nonzero"/></g></g></g><g clip-path="url(#e793cd232d)"><g clip-path="url(#5c3836caab)"><g clip-path="url(#295be8e659)"><path stroke-linecap="butt" transform="matrix(0.749412, 0, 0, 0.749412, -0.000000000000042599, 32.727145)" fill="none" stroke-linejoin="miter" d="M 0.000000000000056843 77.997854 L 0.000000000000056843 134.093902 C 0.000000000000056843 177.174541 34.923204 212.092533 77.998631 212.092533 L 703.921484 212.092533 C 747.002123 212.092533 781.920114 177.174541 781.920114 134.093902 L 781.920114 77.997854 C 781.920114 34.922427 747.002123 -0.000776775 703.921484 -0.000776775 L 77.998631 -0.000776775 C 34.923204 -0.000776775 0.000000000000056843 34.922427 0.000000000000056843 77.997854 Z M 0.000000000000056843 77.997854 " stroke="#194c8f" stroke-width="6" stroke-opacity="1" stroke-miterlimit="4"/></g></g></g><g clip-path="url(#d3c70ed3e8)"><g clip-path="url(#1446f0ca2e)"><g transform="matrix(1, 0, 0, 1, 0, 32)"><g clip-path="url(#d4e6950c4b)"><g clip-path="url(#b22c76e1cb)"><g clip-path="url(#211a870b2b)"><path fill="#5bb5e0" d="M 0 0.726562 L 586.125 0.726562 L 586.125 159.675781 L 0 159.675781 Z M 0 0.726562 " fill-opacity="1" fill-rule="nonzero"/></g></g></g></g></g></g><g clip-path="url(#48bd6349f6)"><g clip-path="url(#19d67a8fd0)"><path stroke-linecap="butt" transform="matrix(0.749412, 0, 0, 0.749412, 0.00352208, 32.727141)" fill="none" stroke-linejoin="miter" d="M 77.999138 -0.000771975 L 703.916739 -0.000771975 C 746.992163 -0.000771975 781.910152 34.92243 781.910152 77.997854 L 781.910152 134.093898 C 781.910152 177.174535 746.992163 212.092524 703.916739 212.092524 L 77.999138 212.092524 C 34.918502 212.092524 0.000512634 177.174535 0.000512634 134.093898 L 0.000512634 77.997854 C 0.000512634 34.92243 34.918502 -0.000771975 77.999138 -0.000771975 Z M 77.999138 -0.000771975 " stroke="#5bb5e0" stroke-width="2" stroke-opacity="1" stroke-miterlimit="4"/></g></g><g transform="matrix(1, 0, 0, 1, 25, 64)"><g clip-path="url(#3f9ec280d7)"><g fill="#f1f1f1" fill-opacity="1"><g transform="translate(1.136614, 71.649095)"><g><path d="M 56.84375 -37.625 L 45.84375 0 L 35.59375 0 L 28.734375 -26.28125 L 21.875 0 L 11.546875 0 L 0.46875 -37.625 L 10.125 -37.625 L 16.78125 -8.96875 L 23.96875 -37.625 L 34.03125 -37.625 L 41.09375 -9.03125 L 47.75 -37.625 Z M 56.84375 -37.625 "/></g></g></g><g fill="#f1f1f1" fill-opacity="1"><g transform="translate(57.106747, 71.649095)"><g><path d="M 25.875 -38.171875 C 28.726562 -38.171875 31.265625 -37.546875 33.484375 -36.296875 C 35.703125 -35.054688 37.429688 -33.222656 38.671875 -30.796875 C 39.921875 -28.378906 40.546875 -25.472656 40.546875 -22.078125 L 40.546875 0 L 31.046875 0 L 31.046875 -20.78125 C 31.046875 -23.769531 30.296875 -26.066406 28.796875 -27.671875 C 27.304688 -29.285156 25.269531 -30.09375 22.6875 -30.09375 C 20.0625 -30.09375 17.988281 -29.285156 16.46875 -27.671875 C 14.957031 -26.066406 14.203125 -23.769531 14.203125 -20.78125 L 14.203125 0 L 4.6875 0 L 4.6875 -50.265625 L 14.203125 -50.265625 L 14.203125 -32.9375 C 15.421875 -34.570312 17.046875 -35.851562 19.078125 -36.78125 C 21.117188 -37.707031 23.382812 -38.171875 25.875 -38.171875 Z M 25.875 -38.171875 "/></g></g></g><g fill="#f1f1f1" fill-opacity="1"><g transform="translate(100.646569, 71.649095)"><g><path d="M 9.515625 -42.109375 C 7.835938 -42.109375 6.441406 -42.640625 5.328125 -43.703125 C 4.222656 -44.765625 3.671875 -46.09375 3.671875 -47.6875 C 3.671875 -49.269531 4.222656 -50.59375 5.328125 -51.65625 C 6.441406 -52.71875 7.835938 -53.25 9.515625 -53.25 C 11.179688 -53.25 12.566406 -52.71875 13.671875 -51.65625 C 14.785156 -50.59375 15.34375 -49.269531 15.34375 -47.6875 C 15.34375 -46.09375 14.785156 -44.765625 13.671875 -43.703125 C 12.566406 -42.640625 11.179688 -42.109375 9.515625 -42.109375 Z M 14.203125 -37.625 L 14.203125 0 L 4.6875 0 L 4.6875 -37.625 Z M 14.203125 -37.625 "/></g></g></g><g fill="#f1f1f1" fill-opacity="1"><g transform="translate(118.171037, 71.649095)"><g><path d="M 15.765625 -29.8125 L 15.765625 -11.609375 C 15.765625 -10.347656 16.066406 -9.429688 16.671875 -8.859375 C 17.285156 -8.296875 18.316406 -8.015625 19.765625 -8.015625 L 24.1875 -8.015625 L 24.1875 0 L 18.203125 0 C 10.191406 0 6.1875 -3.894531 6.1875 -11.6875 L 6.1875 -29.8125 L 1.703125 -29.8125 L 1.703125 -37.625 L 6.1875 -37.625 L 6.1875 -46.9375 L 15.765625 -46.9375 L 15.765625 -37.625 L 24.1875 -37.625 L 24.1875 -29.8125 Z M 15.765625 -29.8125 "/></g></g></g><g fill="#f1f1f1" fill-opacity="1"><g transform="translate(143.167277, 71.649095)"><g><path d="M 19.09375 0.609375 C 16.007812 0.609375 13.242188 0.0546875 10.796875 -1.046875 C 8.347656 -2.160156 6.410156 -3.664062 4.984375 -5.5625 C 3.566406 -7.46875 2.789062 -9.578125 2.65625 -11.890625 L 12.21875 -11.890625 C 12.40625 -10.441406 13.117188 -9.238281 14.359375 -8.28125 C 15.609375 -7.332031 17.160156 -6.859375 19.015625 -6.859375 C 20.828125 -6.859375 22.242188 -7.21875 23.265625 -7.9375 C 24.285156 -8.664062 24.796875 -9.597656 24.796875 -10.734375 C 24.796875 -11.953125 24.171875 -12.867188 22.921875 -13.484375 C 21.679688 -14.097656 19.703125 -14.765625 16.984375 -15.484375 C 14.171875 -16.160156 11.867188 -16.859375 10.078125 -17.578125 C 8.296875 -18.304688 6.757812 -19.414062 5.46875 -20.90625 C 4.175781 -22.40625 3.53125 -24.425781 3.53125 -26.96875 C 3.53125 -29.050781 4.128906 -30.953125 5.328125 -32.671875 C 6.523438 -34.390625 8.242188 -35.742188 10.484375 -36.734375 C 12.734375 -37.734375 15.375 -38.234375 18.40625 -38.234375 C 22.882812 -38.234375 26.457031 -37.113281 29.125 -34.875 C 31.800781 -32.632812 33.273438 -29.613281 33.546875 -25.8125 L 24.453125 -25.8125 C 24.316406 -27.300781 23.691406 -28.488281 22.578125 -29.375 C 21.472656 -30.257812 19.992188 -30.703125 18.140625 -30.703125 C 16.410156 -30.703125 15.082031 -30.382812 14.15625 -29.75 C 13.226562 -29.113281 12.765625 -28.226562 12.765625 -27.09375 C 12.765625 -25.832031 13.398438 -24.875 14.671875 -24.21875 C 15.941406 -23.5625 17.910156 -22.890625 20.578125 -22.203125 C 23.296875 -21.523438 25.535156 -20.820312 27.296875 -20.09375 C 29.066406 -19.375 30.597656 -18.253906 31.890625 -16.734375 C 33.179688 -15.222656 33.847656 -13.222656 33.890625 -10.734375 C 33.890625 -8.554688 33.289062 -6.609375 32.09375 -4.890625 C 30.894531 -3.171875 29.171875 -1.820312 26.921875 -0.84375 C 24.679688 0.125 22.070312 0.609375 19.09375 0.609375 Z M 19.09375 0.609375 "/></g></g></g><g fill="#f1f1f1" fill-opacity="1"><g transform="translate(178.827782, 71.649095)"><g><path d="M 15.765625 -29.8125 L 15.765625 -11.609375 C 15.765625 -10.347656 16.066406 -9.429688 16.671875 -8.859375 C 17.285156 -8.296875 18.316406 -8.015625 19.765625 -8.015625 L 24.1875 -8.015625 L 24.1875 0 L 18.203125 0 C 10.191406 0 6.1875 -3.894531 6.1875 -11.6875 L 6.1875 -29.8125 L 1.703125 -29.8125 L 1.703125 -37.625 L 6.1875 -37.625 L 6.1875 -46.9375 L 15.765625 -46.9375 L 15.765625 -37.625 L 24.1875 -37.625 L 24.1875 -29.8125 Z M 15.765625 -29.8125 "/></g></g></g><g fill="#f1f1f1" fill-opacity="1"><g transform="translate(203.824021, 71.649095)"><g><path d="M 2.234375 -18.953125 C 2.234375 -22.753906 2.992188 -26.125 4.515625 -29.0625 C 6.035156 -32.007812 8.097656 -34.273438 10.703125 -35.859375 C 13.304688 -37.441406 16.210938 -38.234375 19.421875 -38.234375 C 22.234375 -38.234375 24.691406 -37.664062 26.796875 -36.53125 C 28.898438 -35.40625 30.585938 -33.984375 31.859375 -32.265625 L 31.859375 -37.625 L 41.4375 -37.625 L 41.4375 0 L 31.859375 0 L 31.859375 -5.5 C 30.628906 -3.738281 28.9375 -2.28125 26.78125 -1.125 C 24.632812 0.03125 22.160156 0.609375 19.359375 0.609375 C 16.191406 0.609375 13.304688 -0.203125 10.703125 -1.828125 C 8.097656 -3.460938 6.035156 -5.757812 4.515625 -8.71875 C 2.992188 -11.6875 2.234375 -15.097656 2.234375 -18.953125 Z M 31.859375 -18.8125 C 31.859375 -21.125 31.40625 -23.101562 30.5 -24.75 C 29.59375 -26.40625 28.367188 -27.675781 26.828125 -28.5625 C 25.285156 -29.445312 23.632812 -29.890625 21.875 -29.890625 C 20.101562 -29.890625 18.46875 -29.457031 16.96875 -28.59375 C 15.476562 -27.726562 14.269531 -26.46875 13.34375 -24.8125 C 12.414062 -23.164062 11.953125 -21.210938 11.953125 -18.953125 C 11.953125 -16.679688 12.414062 -14.695312 13.34375 -13 C 14.269531 -11.300781 15.492188 -10 17.015625 -9.09375 C 18.535156 -8.195312 20.15625 -7.75 21.875 -7.75 C 23.632812 -7.75 25.285156 -8.1875 26.828125 -9.0625 C 28.367188 -9.945312 29.59375 -11.210938 30.5 -12.859375 C 31.40625 -14.515625 31.859375 -16.5 31.859375 -18.8125 Z M 31.859375 -18.8125 "/></g></g></g><g fill="#f1f1f1" fill-opacity="1"><g transform="translate(248.518563, 71.649095)"><g><path d="M 14.203125 -32.125 C 15.421875 -33.9375 17.101562 -35.40625 19.25 -36.53125 C 21.40625 -37.664062 23.863281 -38.234375 26.625 -38.234375 C 29.84375 -38.234375 32.753906 -37.441406 35.359375 -35.859375 C 37.960938 -34.273438 40.019531 -32.019531 41.53125 -29.09375 C 43.050781 -26.175781 43.8125 -22.796875 43.8125 -18.953125 C 43.8125 -15.097656 43.050781 -11.6875 41.53125 -8.71875 C 40.019531 -5.757812 37.960938 -3.460938 35.359375 -1.828125 C 32.753906 -0.203125 29.84375 0.609375 26.625 0.609375 C 23.820312 0.609375 21.363281 0.0546875 19.25 -1.046875 C 17.144531 -2.160156 15.460938 -3.597656 14.203125 -5.359375 L 14.203125 0 L 4.6875 0 L 4.6875 -50.265625 L 14.203125 -50.265625 Z M 34.09375 -18.953125 C 34.09375 -21.210938 33.628906 -23.164062 32.703125 -24.8125 C 31.773438 -26.46875 30.550781 -27.726562 29.03125 -28.59375 C 27.519531 -29.457031 25.878906 -29.890625 24.109375 -29.890625 C 22.390625 -29.890625 20.769531 -29.445312 19.25 -28.5625 C 17.738281 -27.675781 16.519531 -26.394531 15.59375 -24.71875 C 14.664062 -23.039062 14.203125 -21.070312 14.203125 -18.8125 C 14.203125 -16.550781 14.664062 -14.582031 15.59375 -12.90625 C 16.519531 -11.226562 17.738281 -9.945312 19.25 -9.0625 C 20.769531 -8.1875 22.390625 -7.75 24.109375 -7.75 C 25.878906 -7.75 27.519531 -8.195312 29.03125 -9.09375 C 30.550781 -10 31.773438 -11.289062 32.703125 -12.96875 C 33.628906 -14.644531 34.09375 -16.640625 34.09375 -18.953125 Z M 34.09375 -18.953125 "/></g></g></g><g fill="#f1f1f1" fill-opacity="1"><g transform="translate(293.213105, 71.649095)"><g><path d="M 14.203125 -50.265625 L 14.203125 0 L 4.6875 0 L 4.6875 -50.265625 Z M 14.203125 -50.265625 "/></g></g></g><g fill="#f1f1f1" fill-opacity="1"><g transform="translate(310.737573, 71.649095)"><g><path d="M 39.671875 -19.625 C 39.671875 -18.269531 39.578125 -17.050781 39.390625 -15.96875 L 11.890625 -15.96875 C 12.109375 -13.25 13.054688 -11.117188 14.734375 -9.578125 C 16.410156 -8.035156 18.472656 -7.265625 20.921875 -7.265625 C 24.453125 -7.265625 26.960938 -8.78125 28.453125 -11.8125 L 38.71875 -11.8125 C 37.625 -8.195312 35.535156 -5.222656 32.453125 -2.890625 C 29.378906 -0.554688 25.601562 0.609375 21.125 0.609375 C 17.5 0.609375 14.25 -0.191406 11.375 -1.796875 C 8.5 -3.410156 6.253906 -5.6875 4.640625 -8.625 C 3.035156 -11.570312 2.234375 -14.96875 2.234375 -18.8125 C 2.234375 -22.707031 3.023438 -26.125 4.609375 -29.0625 C 6.203125 -32.007812 8.421875 -34.273438 11.265625 -35.859375 C 14.117188 -37.441406 17.40625 -38.234375 21.125 -38.234375 C 24.695312 -38.234375 27.898438 -37.460938 30.734375 -35.921875 C 33.566406 -34.390625 35.765625 -32.207031 37.328125 -29.375 C 38.890625 -26.539062 39.671875 -23.289062 39.671875 -19.625 Z M 29.8125 -22.34375 C 29.769531 -24.789062 28.890625 -26.75 27.171875 -28.21875 C 25.453125 -29.6875 23.347656 -30.421875 20.859375 -30.421875 C 18.492188 -30.421875 16.507812 -29.707031 14.90625 -28.28125 C 13.300781 -26.863281 12.316406 -24.882812 11.953125 -22.34375 Z M 29.8125 -22.34375 "/></g></g></g><g fill="#f1f1f1" fill-opacity="1"><g transform="translate(351.288684, 71.649095)"><g><path d="M 8.890625 0.46875 C 7.171875 0.46875 5.753906 -0.0625 4.640625 -1.125 C 3.535156 -2.1875 2.984375 -3.507812 2.984375 -5.09375 C 2.984375 -6.675781 3.535156 -8 4.640625 -9.0625 C 5.753906 -10.125 7.171875 -10.65625 8.890625 -10.65625 C 10.566406 -10.65625 11.945312 -10.125 13.03125 -9.0625 C 14.125 -8 14.671875 -6.675781 14.671875 -5.09375 C 14.671875 -3.507812 14.125 -2.1875 13.03125 -1.125 C 11.945312 -0.0625 10.566406 0.46875 8.890625 0.46875 Z M 8.890625 0.46875 "/></g></g></g><g fill="#f1f1f1" fill-opacity="1"><g transform="translate(367.590501, 71.649095)"><g><path d="M 19.09375 0.609375 C 16.007812 0.609375 13.242188 0.0546875 10.796875 -1.046875 C 8.347656 -2.160156 6.410156 -3.664062 4.984375 -5.5625 C 3.566406 -7.46875 2.789062 -9.578125 2.65625 -11.890625 L 12.21875 -11.890625 C 12.40625 -10.441406 13.117188 -9.238281 14.359375 -8.28125 C 15.609375 -7.332031 17.160156 -6.859375 19.015625 -6.859375 C 20.828125 -6.859375 22.242188 -7.21875 23.265625 -7.9375 C 24.285156 -8.664062 24.796875 -9.597656 24.796875 -10.734375 C 24.796875 -11.953125 24.171875 -12.867188 22.921875 -13.484375 C 21.679688 -14.097656 19.703125 -14.765625 16.984375 -15.484375 C 14.171875 -16.160156 11.867188 -16.859375 10.078125 -17.578125 C 8.296875 -18.304688 6.757812 -19.414062 5.46875 -20.90625 C 4.175781 -22.40625 3.53125 -24.425781 3.53125 -26.96875 C 3.53125 -29.050781 4.128906 -30.953125 5.328125 -32.671875 C 6.523438 -34.390625 8.242188 -35.742188 10.484375 -36.734375 C 12.734375 -37.734375 15.375 -38.234375 18.40625 -38.234375 C 22.882812 -38.234375 26.457031 -37.113281 29.125 -34.875 C 31.800781 -32.632812 33.273438 -29.613281 33.546875 -25.8125 L 24.453125 -25.8125 C 24.316406 -27.300781 23.691406 -28.488281 22.578125 -29.375 C 21.472656 -30.257812 19.992188 -30.703125 18.140625 -30.703125 C 16.410156 -30.703125 15.082031 -30.382812 14.15625 -29.75 C 13.226562 -29.113281 12.765625 -28.226562 12.765625 -27.09375 C 12.765625 -25.832031 13.398438 -24.875 14.671875 -24.21875 C 15.941406 -23.5625 17.910156 -22.890625 20.578125 -22.203125 C 23.296875 -21.523438 25.535156 -20.820312 27.296875 -20.09375 C 29.066406 -19.375 30.597656 -18.253906 31.890625 -16.734375 C 33.179688 -15.222656 33.847656 -13.222656 33.890625 -10.734375 C 33.890625 -8.554688 33.289062 -6.609375 32.09375 -4.890625 C 30.894531 -3.171875 29.171875 -1.820312 26.921875 -0.84375 C 24.679688 0.125 22.070312 0.609375 19.09375 0.609375 Z M 19.09375 0.609375 "/></g></g></g><g fill="#f1f1f1" fill-opacity="1"><g transform="translate(403.251005, 71.649095)"><g><path d="M 25.875 -38.171875 C 28.726562 -38.171875 31.265625 -37.546875 33.484375 -36.296875 C 35.703125 -35.054688 37.429688 -33.222656 38.671875 -30.796875 C 39.921875 -28.378906 40.546875 -25.472656 40.546875 -22.078125 L 40.546875 0 L 31.046875 0 L 31.046875 -20.78125 C 31.046875 -23.769531 30.296875 -26.066406 28.796875 -27.671875 C 27.304688 -29.285156 25.269531 -30.09375 22.6875 -30.09375 C 20.0625 -30.09375 17.988281 -29.285156 16.46875 -27.671875 C 14.957031 -26.066406 14.203125 -23.769531 14.203125 -20.78125 L 14.203125 0 L 4.6875 0 L 4.6875 -50.265625 L 14.203125 -50.265625 L 14.203125 -32.9375 C 15.421875 -34.570312 17.046875 -35.851562 19.078125 -36.78125 C 21.117188 -37.707031 23.382812 -38.171875 25.875 -38.171875 Z M 25.875 -38.171875 "/></g></g></g><g fill="#f1f1f1" fill-opacity="1"><g transform="translate(446.790843, 71.649095)"><g><path d="M 21.390625 0.609375 C 17.773438 0.609375 14.515625 -0.191406 11.609375 -1.796875 C 8.710938 -3.410156 6.4375 -5.6875 4.78125 -8.625 C 3.132812 -11.570312 2.3125 -14.96875 2.3125 -18.8125 C 2.3125 -22.664062 3.160156 -26.0625 4.859375 -29 C 6.554688 -31.945312 8.875 -34.222656 11.8125 -35.828125 C 14.757812 -37.429688 18.046875 -38.234375 21.671875 -38.234375 C 25.285156 -38.234375 28.566406 -37.429688 31.515625 -35.828125 C 34.460938 -34.222656 36.785156 -31.945312 38.484375 -29 C 40.179688 -26.0625 41.03125 -22.664062 41.03125 -18.8125 C 41.03125 -14.96875 40.15625 -11.570312 38.40625 -8.625 C 36.664062 -5.6875 34.3125 -3.410156 31.34375 -1.796875 C 28.375 -0.191406 25.054688 0.609375 21.390625 0.609375 Z M 21.390625 -7.671875 C 23.109375 -7.671875 24.726562 -8.085938 26.25 -8.921875 C 27.769531 -9.765625 28.984375 -11.023438 29.890625 -12.703125 C 30.796875 -14.378906 31.25 -16.414062 31.25 -18.8125 C 31.25 -22.394531 30.304688 -25.144531 28.421875 -27.0625 C 26.546875 -28.988281 24.25 -29.953125 21.53125 -29.953125 C 18.8125 -29.953125 16.535156 -28.988281 14.703125 -27.0625 C 12.867188 -25.144531 11.953125 -22.394531 11.953125 -18.8125 C 11.953125 -15.238281 12.84375 -12.488281 14.625 -10.5625 C 16.414062 -8.632812 18.671875 -7.671875 21.390625 -7.671875 Z M 21.390625 -7.671875 "/></g></g></g><g fill="#f1f1f1" fill-opacity="1"><g transform="translate(488.76837, 71.649095)"><g><path d="M 14.203125 -32.1875 C 15.421875 -33.914062 17.101562 -35.351562 19.25 -36.5 C 21.40625 -37.65625 23.863281 -38.234375 26.625 -38.234375 C 29.84375 -38.234375 32.753906 -37.441406 35.359375 -35.859375 C 37.960938 -34.273438 40.019531 -32.019531 41.53125 -29.09375 C 43.050781 -26.175781 43.8125 -22.796875 43.8125 -18.953125 C 43.8125 -15.097656 43.050781 -11.6875 41.53125 -8.71875 C 40.019531 -5.757812 37.960938 -3.460938 35.359375 -1.828125 C 32.753906 -0.203125 29.84375 0.609375 26.625 0.609375 C 23.863281 0.609375 21.429688 0.046875 19.328125 -1.078125 C 17.222656 -2.210938 15.515625 -3.640625 14.203125 -5.359375 L 14.203125 17.9375 L 4.6875 17.9375 L 4.6875 -37.625 L 14.203125 -37.625 Z M 34.09375 -18.953125 C 34.09375 -21.210938 33.628906 -23.164062 32.703125 -24.8125 C 31.773438 -26.46875 30.550781 -27.726562 29.03125 -28.59375 C 27.519531 -29.457031 25.878906 -29.890625 24.109375 -29.890625 C 22.390625 -29.890625 20.769531 -29.445312 19.25 -28.5625 C 17.738281 -27.675781 16.519531 -26.394531 15.59375 -24.71875 C 14.664062 -23.039062 14.203125 -21.070312 14.203125 -18.8125 C 14.203125 -16.550781 14.664062 -14.582031 15.59375 -12.90625 C 16.519531 -11.226562 17.738281 -9.945312 19.25 -9.0625 C 20.769531 -8.1875 22.390625 -7.75 24.109375 -7.75 C 25.878906 -7.75 27.519531 -8.195312 29.03125 -9.09375 C 30.550781 -10 31.773438 -11.289062 32.703125 -12.96875 C 33.628906 -14.644531 34.09375 -16.640625 34.09375 -18.953125 Z M 34.09375 -18.953125 "/></g></g></g></g></g></svg>