<svg xmlns="http://www.w3.org/2000/svg" xmlns:xlink="http://www.w3.org/1999/xlink" width="500" zoomAndPan="magnify" viewBox="0 0 375 374.999991" height="500" preserveAspectRatio="xMidYMid meet" version="1.0"><defs><g/><clipPath id="bef9a7cabd"><path d="M 9.640625 -63.070312 L 380.605469 -63.070312 C 399.609375 -63.070312 415.015625 -47.664062 415.015625 -28.660156 L 415.015625 352.773438 C 415.015625 371.78125 399.609375 387.1875 380.605469 387.1875 L 9.640625 387.1875 C -9.367188 387.1875 -24.773438 371.78125 -24.773438 352.773438 L -24.773438 -28.660156 C -24.773438 -47.664062 -9.367188 -63.070312 9.640625 -63.070312 Z M 9.640625 -63.070312 " clip-rule="nonzero"/></clipPath><clipPath id="f4b831a5ff"><path d="M 0 0 L 375 0 L 375 375 L 0 375 Z M 0 0 " clip-rule="nonzero"/></clipPath><clipPath id="37151527d1"><path d="M 9.640625 -63.070312 L 380.605469 -63.070312 C 399.609375 -63.070312 415.015625 -47.664062 415.015625 -28.660156 L 415.015625 352.773438 C 415.015625 371.78125 399.609375 387.1875 380.605469 387.1875 L 9.640625 387.1875 C -9.367188 387.1875 -24.773438 371.78125 -24.773438 352.773438 L -24.773438 -28.660156 C -24.773438 -47.664062 -9.367188 -63.070312 9.640625 -63.070312 Z M 9.640625 -63.070312 " clip-rule="nonzero"/></clipPath><clipPath id="60ed6e67ad"><rect x="0" width="375" y="0" height="375"/></clipPath><clipPath id="9309434ba1"><path d="M 9.636719 -63.066406 L 380.597656 -63.066406 C 399.601562 -63.066406 415.007812 -47.660156 415.007812 -28.65625 L 415.007812 352.769531 C 415.007812 371.777344 399.601562 387.183594 380.597656 387.183594 L 9.636719 387.183594 C -9.367188 387.183594 -24.773438 371.777344 -24.773438 352.769531 L -24.773438 -28.65625 C -24.773438 -47.660156 -9.367188 -63.066406 9.636719 -63.066406 Z M 9.636719 -63.066406 " clip-rule="nonzero"/></clipPath><clipPath id="7eac968280"><path d="M 0 232 L 114.835938 232 L 114.835938 375 L 0 375 Z M 0 232 " clip-rule="nonzero"/></clipPath></defs><g clip-path="url(#bef9a7cabd)"><g transform="matrix(1, 0, 0, 1, 0, 0)"><g clip-path="url(#60ed6e67ad)"><g clip-path="url(#f4b831a5ff)"><g clip-path="url(#37151527d1)"><rect x="-82.5" width="540" fill="#5bb5e0" height="539.999987" y="-82.499998" fill-opacity="1"/></g></g></g></g></g><g clip-path="url(#9309434ba1)"><path stroke-linecap="butt" transform="matrix(0.75, 0, 0, 0.75, -24.772644, -63.06817)" fill="none" stroke-linejoin="miter" d="M 45.879151 0.00235201 L 540.493735 0.00235201 C 565.832276 0.00235201 586.373943 20.544019 586.373943 45.88256 L 586.373943 554.45027 C 586.373943 579.79402 565.832276 600.335686 540.493735 600.335686 L 45.879151 600.335686 C 20.540609 600.335686 -0.00105785 579.79402 -0.00105785 554.45027 L -0.00105785 45.88256 C -0.00105785 20.544019 20.540609 0.00235201 45.879151 0.00235201 Z M 45.879151 0.00235201 " stroke="#5bb5e0" stroke-width="2" stroke-opacity="1" stroke-miterlimit="4"/></g><g fill="#f1f1f1" fill-opacity="1"><g transform="translate(4.495766, 181.892683)"><g><path d="M 59.203125 -39.1875 L 47.75 0 L 37.0625 0 L 29.921875 -27.375 L 22.78125 0 L 12.03125 0 L 0.5 -39.1875 L 10.546875 -39.1875 L 17.46875 -9.34375 L 24.96875 -39.1875 L 35.4375 -39.1875 L 42.796875 -9.40625 L 49.71875 -39.1875 Z M 59.203125 -39.1875 "/></g></g></g><g fill="#f1f1f1" fill-opacity="1"><g transform="translate(62.771, 181.892683)"><g><path d="M 26.953125 -39.75 C 29.921875 -39.75 32.5625 -39.097656 34.875 -37.796875 C 37.1875 -36.503906 38.988281 -34.597656 40.28125 -32.078125 C 41.582031 -29.554688 42.234375 -26.523438 42.234375 -22.984375 L 42.234375 0 L 32.328125 0 L 32.328125 -21.640625 C 32.328125 -24.753906 31.546875 -27.144531 29.984375 -28.8125 C 28.429688 -30.488281 26.3125 -31.328125 23.625 -31.328125 C 20.882812 -31.328125 18.722656 -30.488281 17.140625 -28.8125 C 15.566406 -27.144531 14.78125 -24.753906 14.78125 -21.640625 L 14.78125 0 L 4.875 0 L 4.875 -52.34375 L 14.78125 -52.34375 L 14.78125 -34.3125 C 16.050781 -36.007812 17.75 -37.335938 19.875 -38.296875 C 22 -39.265625 24.359375 -39.75 26.953125 -39.75 Z M 26.953125 -39.75 "/></g></g></g><g fill="#f1f1f1" fill-opacity="1"><g transform="translate(108.103986, 181.892683)"><g><path d="M 9.90625 -43.859375 C 8.15625 -43.859375 6.703125 -44.410156 5.546875 -45.515625 C 4.390625 -46.628906 3.8125 -48.007812 3.8125 -49.65625 C 3.8125 -51.300781 4.390625 -52.675781 5.546875 -53.78125 C 6.703125 -54.894531 8.15625 -55.453125 9.90625 -55.453125 C 11.644531 -55.453125 13.09375 -54.894531 14.25 -53.78125 C 15.40625 -52.675781 15.984375 -51.300781 15.984375 -49.65625 C 15.984375 -48.007812 15.40625 -46.628906 14.25 -45.515625 C 13.09375 -44.410156 11.644531 -43.859375 9.90625 -43.859375 Z M 14.78125 -39.1875 L 14.78125 0 L 4.875 0 L 4.875 -39.1875 Z M 14.78125 -39.1875 "/></g></g></g><g fill="#f1f1f1" fill-opacity="1"><g transform="translate(126.350181, 181.892683)"><g><path d="M 16.40625 -31.046875 L 16.40625 -12.09375 C 16.40625 -10.769531 16.722656 -9.8125 17.359375 -9.21875 C 17.992188 -8.632812 19.066406 -8.34375 20.578125 -8.34375 L 25.1875 -8.34375 L 25.1875 0 L 18.953125 0 C 10.609375 0 6.4375 -4.054688 6.4375 -12.171875 L 6.4375 -31.046875 L 1.765625 -31.046875 L 1.765625 -39.1875 L 6.4375 -39.1875 L 6.4375 -48.875 L 16.40625 -48.875 L 16.40625 -39.1875 L 25.1875 -39.1875 L 25.1875 -31.046875 Z M 16.40625 -31.046875 "/></g></g></g><g fill="#f1f1f1" fill-opacity="1"><g transform="translate(152.375863, 181.892683)"><g><path d="M 19.875 0.640625 C 16.664062 0.640625 13.785156 0.0625 11.234375 -1.09375 C 8.691406 -2.25 6.675781 -3.816406 5.1875 -5.796875 C 3.707031 -7.773438 2.898438 -9.96875 2.765625 -12.375 L 12.734375 -12.375 C 12.921875 -10.863281 13.660156 -9.613281 14.953125 -8.625 C 16.253906 -7.632812 17.875 -7.140625 19.8125 -7.140625 C 21.695312 -7.140625 23.164062 -7.515625 24.21875 -8.265625 C 25.28125 -9.023438 25.8125 -9.992188 25.8125 -11.171875 C 25.8125 -12.441406 25.160156 -13.394531 23.859375 -14.03125 C 22.566406 -14.675781 20.507812 -15.375 17.6875 -16.125 C 14.757812 -16.832031 12.363281 -17.5625 10.5 -18.3125 C 8.632812 -19.070312 7.03125 -20.226562 5.6875 -21.78125 C 4.34375 -23.34375 3.671875 -25.441406 3.671875 -28.078125 C 3.671875 -30.242188 4.296875 -32.222656 5.546875 -34.015625 C 6.796875 -35.816406 8.585938 -37.234375 10.921875 -38.265625 C 13.265625 -39.304688 16.015625 -39.828125 19.171875 -39.828125 C 23.835938 -39.828125 27.5625 -38.660156 30.34375 -36.328125 C 33.125 -33.992188 34.65625 -30.84375 34.9375 -26.875 L 25.46875 -26.875 C 25.320312 -28.4375 24.671875 -29.675781 23.515625 -30.59375 C 22.359375 -31.507812 20.816406 -31.96875 18.890625 -31.96875 C 17.097656 -31.96875 15.71875 -31.632812 14.75 -30.96875 C 13.78125 -30.3125 13.296875 -29.394531 13.296875 -28.21875 C 13.296875 -26.90625 13.957031 -25.90625 15.28125 -25.21875 C 16.601562 -24.53125 18.65625 -23.832031 21.4375 -23.125 C 24.257812 -22.414062 26.585938 -21.6875 28.421875 -20.9375 C 30.265625 -20.1875 31.859375 -19.019531 33.203125 -17.4375 C 34.546875 -15.851562 35.242188 -13.765625 35.296875 -11.171875 C 35.296875 -8.910156 34.671875 -6.882812 33.421875 -5.09375 C 32.171875 -3.300781 30.378906 -1.894531 28.046875 -0.875 C 25.710938 0.132812 22.988281 0.640625 19.875 0.640625 Z M 19.875 0.640625 "/></g></g></g><g fill="#f1f1f1" fill-opacity="1"><g transform="translate(189.505015, 181.892683)"><g><path d="M 16.40625 -31.046875 L 16.40625 -12.09375 C 16.40625 -10.769531 16.722656 -9.8125 17.359375 -9.21875 C 17.992188 -8.632812 19.066406 -8.34375 20.578125 -8.34375 L 25.1875 -8.34375 L 25.1875 0 L 18.953125 0 C 10.609375 0 6.4375 -4.054688 6.4375 -12.171875 L 6.4375 -31.046875 L 1.765625 -31.046875 L 1.765625 -39.1875 L 6.4375 -39.1875 L 6.4375 -48.875 L 16.40625 -48.875 L 16.40625 -39.1875 L 25.1875 -39.1875 L 25.1875 -31.046875 Z M 16.40625 -31.046875 "/></g></g></g><g fill="#f1f1f1" fill-opacity="1"><g transform="translate(215.530709, 181.892683)"><g><path d="M 2.328125 -19.734375 C 2.328125 -23.691406 3.117188 -27.203125 4.703125 -30.265625 C 6.285156 -33.335938 8.429688 -35.695312 11.140625 -37.34375 C 13.847656 -39 16.878906 -39.828125 20.234375 -39.828125 C 23.148438 -39.828125 25.703125 -39.234375 27.890625 -38.046875 C 30.085938 -36.867188 31.847656 -35.382812 33.171875 -33.59375 L 33.171875 -39.1875 L 43.140625 -39.1875 L 43.140625 0 L 33.171875 0 L 33.171875 -5.734375 C 31.898438 -3.890625 30.144531 -2.363281 27.90625 -1.15625 C 25.664062 0.0390625 23.082031 0.640625 20.15625 0.640625 C 16.851562 0.640625 13.847656 -0.207031 11.140625 -1.90625 C 8.429688 -3.601562 6.285156 -5.992188 4.703125 -9.078125 C 3.117188 -12.171875 2.328125 -15.722656 2.328125 -19.734375 Z M 33.171875 -19.59375 C 33.171875 -22 32.695312 -24.0625 31.75 -25.78125 C 30.8125 -27.5 29.539062 -28.816406 27.9375 -29.734375 C 26.332031 -30.660156 24.613281 -31.125 22.78125 -31.125 C 20.9375 -31.125 19.234375 -30.675781 17.671875 -29.78125 C 16.117188 -28.882812 14.859375 -27.570312 13.890625 -25.84375 C 12.929688 -24.125 12.453125 -22.085938 12.453125 -19.734375 C 12.453125 -17.378906 12.929688 -15.316406 13.890625 -13.546875 C 14.859375 -11.773438 16.132812 -10.414062 17.71875 -9.46875 C 19.300781 -8.53125 20.988281 -8.0625 22.78125 -8.0625 C 24.613281 -8.0625 26.332031 -8.519531 27.9375 -9.4375 C 29.539062 -10.363281 30.8125 -11.6875 31.75 -13.40625 C 32.695312 -15.125 33.171875 -17.1875 33.171875 -19.59375 Z M 33.171875 -19.59375 "/></g></g></g><g fill="#f1f1f1" fill-opacity="1"><g transform="translate(262.065954, 181.892683)"><g><path d="M 14.78125 -33.453125 C 16.050781 -35.335938 17.804688 -36.867188 20.046875 -38.046875 C 22.285156 -39.234375 24.847656 -39.828125 27.734375 -39.828125 C 31.078125 -39.828125 34.101562 -39 36.8125 -37.34375 C 39.53125 -35.695312 41.675781 -33.351562 43.25 -30.3125 C 44.832031 -27.269531 45.625 -23.742188 45.625 -19.734375 C 45.625 -15.722656 44.832031 -12.171875 43.25 -9.078125 C 41.675781 -5.992188 39.53125 -3.601562 36.8125 -1.90625 C 34.101562 -0.207031 31.078125 0.640625 27.734375 0.640625 C 24.804688 0.640625 22.242188 0.0625 20.046875 -1.09375 C 17.859375 -2.25 16.101562 -3.75 14.78125 -5.59375 L 14.78125 0 L 4.875 0 L 4.875 -52.34375 L 14.78125 -52.34375 Z M 35.515625 -19.734375 C 35.515625 -22.085938 35.03125 -24.125 34.0625 -25.84375 C 33.09375 -27.570312 31.816406 -28.882812 30.234375 -29.78125 C 28.660156 -30.675781 26.953125 -31.125 25.109375 -31.125 C 23.316406 -31.125 21.628906 -30.660156 20.046875 -29.734375 C 18.472656 -28.816406 17.203125 -27.484375 16.234375 -25.734375 C 15.265625 -23.992188 14.78125 -21.945312 14.78125 -19.59375 C 14.78125 -17.238281 15.265625 -15.1875 16.234375 -13.4375 C 17.203125 -11.695312 18.472656 -10.363281 20.046875 -9.4375 C 21.628906 -8.519531 23.316406 -8.0625 25.109375 -8.0625 C 26.953125 -8.0625 28.660156 -8.53125 30.234375 -9.46875 C 31.816406 -10.414062 33.09375 -11.757812 34.0625 -13.5 C 35.03125 -15.25 35.515625 -17.328125 35.515625 -19.734375 Z M 35.515625 -19.734375 "/></g></g></g><g fill="#f1f1f1" fill-opacity="1"><g transform="translate(308.601244, 181.892683)"><g><path d="M 14.78125 -52.34375 L 14.78125 0 L 4.875 0 L 4.875 -52.34375 Z M 14.78125 -52.34375 "/></g></g></g><g fill="#f1f1f1" fill-opacity="1"><g transform="translate(326.847429, 181.892683)"><g><path d="M 41.3125 -20.4375 C 41.3125 -19.019531 41.21875 -17.75 41.03125 -16.625 L 12.375 -16.625 C 12.613281 -13.789062 13.601562 -11.570312 15.34375 -9.96875 C 17.09375 -8.363281 19.238281 -7.5625 21.78125 -7.5625 C 25.457031 -7.5625 28.078125 -9.144531 29.640625 -12.3125 L 40.3125 -12.3125 C 39.1875 -8.539062 37.019531 -5.4375 33.8125 -3 C 30.601562 -0.570312 26.664062 0.640625 22 0.640625 C 18.226562 0.640625 14.84375 -0.195312 11.84375 -1.875 C 8.851562 -3.550781 6.519531 -5.921875 4.84375 -8.984375 C 3.164062 -12.046875 2.328125 -15.582031 2.328125 -19.59375 C 2.328125 -23.644531 3.148438 -27.203125 4.796875 -30.265625 C 6.453125 -33.335938 8.765625 -35.695312 11.734375 -37.34375 C 14.710938 -39 18.132812 -39.828125 22 -39.828125 C 25.726562 -39.828125 29.0625 -39.023438 32 -37.421875 C 34.945312 -35.816406 37.234375 -33.539062 38.859375 -30.59375 C 40.492188 -27.644531 41.3125 -24.257812 41.3125 -20.4375 Z M 31.046875 -23.265625 C 31.003906 -25.816406 30.085938 -27.859375 28.296875 -29.390625 C 26.503906 -30.921875 24.3125 -31.6875 21.71875 -31.6875 C 19.257812 -31.6875 17.191406 -30.941406 15.515625 -29.453125 C 13.847656 -27.972656 12.828125 -25.910156 12.453125 -23.265625 Z M 31.046875 -23.265625 "/></g></g></g><g fill="#f1f1f1" fill-opacity="1"><g transform="translate(52.624669, 261.392678)"><g><path d="M 9.265625 0.5 C 7.472656 0.5 6 -0.0507812 4.84375 -1.15625 C 3.6875 -2.269531 3.109375 -3.65625 3.109375 -5.3125 C 3.109375 -6.957031 3.6875 -8.332031 4.84375 -9.4375 C 6 -10.550781 7.472656 -11.109375 9.265625 -11.109375 C 11.015625 -11.109375 12.453125 -10.550781 13.578125 -9.4375 C 14.710938 -8.332031 15.28125 -6.957031 15.28125 -5.3125 C 15.28125 -3.65625 14.710938 -2.269531 13.578125 -1.15625 C 12.453125 -0.0507812 11.015625 0.5 9.265625 0.5 Z M 9.265625 0.5 "/></g></g></g><g fill="#f1f1f1" fill-opacity="1"><g transform="translate(69.605137, 261.392678)"><g/></g></g><g fill="#f1f1f1" fill-opacity="1"><g transform="translate(85.022421, 261.392678)"><g/></g></g><g fill="#f1f1f1" fill-opacity="1"><g transform="translate(100.439706, 261.392678)"><g/></g></g><g fill="#f1f1f1" fill-opacity="1"><g transform="translate(115.856991, 261.392678)"><g/></g></g><g fill="#f1f1f1" fill-opacity="1"><g transform="translate(131.280918, 261.392678)"><g><path d="M 9.265625 0.5 C 7.472656 0.5 6 -0.0507812 4.84375 -1.15625 C 3.6875 -2.269531 3.109375 -3.65625 3.109375 -5.3125 C 3.109375 -6.957031 3.6875 -8.332031 4.84375 -9.4375 C 6 -10.550781 7.472656 -11.109375 9.265625 -11.109375 C 11.015625 -11.109375 12.453125 -10.550781 13.578125 -9.4375 C 14.710938 -8.332031 15.28125 -6.957031 15.28125 -5.3125 C 15.28125 -3.65625 14.710938 -2.269531 13.578125 -1.15625 C 12.453125 -0.0507812 11.015625 0.5 9.265625 0.5 Z M 9.265625 0.5 "/></g></g></g><g fill="#f1f1f1" fill-opacity="1"><g transform="translate(148.254095, 261.392678)"><g><path d="M 19.875 0.640625 C 16.664062 0.640625 13.785156 0.0625 11.234375 -1.09375 C 8.691406 -2.25 6.675781 -3.816406 5.1875 -5.796875 C 3.707031 -7.773438 2.898438 -9.96875 2.765625 -12.375 L 12.734375 -12.375 C 12.921875 -10.863281 13.660156 -9.613281 14.953125 -8.625 C 16.253906 -7.632812 17.875 -7.140625 19.8125 -7.140625 C 21.695312 -7.140625 23.164062 -7.515625 24.21875 -8.265625 C 25.28125 -9.023438 25.8125 -9.992188 25.8125 -11.171875 C 25.8125 -12.441406 25.160156 -13.394531 23.859375 -14.03125 C 22.566406 -14.675781 20.507812 -15.375 17.6875 -16.125 C 14.757812 -16.832031 12.363281 -17.5625 10.5 -18.3125 C 8.632812 -19.070312 7.03125 -20.226562 5.6875 -21.78125 C 4.34375 -23.34375 3.671875 -25.441406 3.671875 -28.078125 C 3.671875 -30.242188 4.296875 -32.222656 5.546875 -34.015625 C 6.796875 -35.816406 8.585938 -37.234375 10.921875 -38.265625 C 13.265625 -39.304688 16.015625 -39.828125 19.171875 -39.828125 C 23.835938 -39.828125 27.5625 -38.660156 30.34375 -36.328125 C 33.125 -33.992188 34.65625 -30.84375 34.9375 -26.875 L 25.46875 -26.875 C 25.320312 -28.4375 24.671875 -29.675781 23.515625 -30.59375 C 22.359375 -31.507812 20.816406 -31.96875 18.890625 -31.96875 C 17.097656 -31.96875 15.71875 -31.632812 14.75 -30.96875 C 13.78125 -30.3125 13.296875 -29.394531 13.296875 -28.21875 C 13.296875 -26.90625 13.957031 -25.90625 15.28125 -25.21875 C 16.601562 -24.53125 18.65625 -23.832031 21.4375 -23.125 C 24.257812 -22.414062 26.585938 -21.6875 28.421875 -20.9375 C 30.265625 -20.1875 31.859375 -19.019531 33.203125 -17.4375 C 34.546875 -15.851562 35.242188 -13.765625 35.296875 -11.171875 C 35.296875 -8.910156 34.671875 -6.882812 33.421875 -5.09375 C 32.171875 -3.300781 30.378906 -1.894531 28.046875 -0.875 C 25.710938 0.132812 22.988281 0.640625 19.875 0.640625 Z M 19.875 0.640625 "/></g></g></g><g fill="#f1f1f1" fill-opacity="1"><g transform="translate(185.383247, 261.392678)"><g><path d="M 26.953125 -39.75 C 29.921875 -39.75 32.5625 -39.097656 34.875 -37.796875 C 37.1875 -36.503906 38.988281 -34.597656 40.28125 -32.078125 C 41.582031 -29.554688 42.234375 -26.523438 42.234375 -22.984375 L 42.234375 0 L 32.328125 0 L 32.328125 -21.640625 C 32.328125 -24.753906 31.546875 -27.144531 29.984375 -28.8125 C 28.429688 -30.488281 26.3125 -31.328125 23.625 -31.328125 C 20.882812 -31.328125 18.722656 -30.488281 17.140625 -28.8125 C 15.566406 -27.144531 14.78125 -24.753906 14.78125 -21.640625 L 14.78125 0 L 4.875 0 L 4.875 -52.34375 L 14.78125 -52.34375 L 14.78125 -34.3125 C 16.050781 -36.007812 17.75 -37.335938 19.875 -38.296875 C 22 -39.265625 24.359375 -39.75 26.953125 -39.75 Z M 26.953125 -39.75 "/></g></g></g><g fill="#f1f1f1" fill-opacity="1"><g transform="translate(230.716233, 261.392678)"><g><path d="M 22.28125 0.640625 C 18.507812 0.640625 15.113281 -0.195312 12.09375 -1.875 C 9.070312 -3.550781 6.703125 -5.921875 4.984375 -8.984375 C 3.265625 -12.046875 2.40625 -15.582031 2.40625 -19.59375 C 2.40625 -23.601562 3.285156 -27.140625 5.046875 -30.203125 C 6.816406 -33.265625 9.234375 -35.632812 12.296875 -37.3125 C 15.367188 -38.988281 18.789062 -39.828125 22.5625 -39.828125 C 26.332031 -39.828125 29.75 -38.988281 32.8125 -37.3125 C 35.882812 -35.632812 38.300781 -33.265625 40.0625 -30.203125 C 41.832031 -27.140625 42.71875 -23.601562 42.71875 -19.59375 C 42.71875 -15.582031 41.8125 -12.046875 40 -8.984375 C 38.1875 -5.921875 35.734375 -3.550781 32.640625 -1.875 C 29.554688 -0.195312 26.101562 0.640625 22.28125 0.640625 Z M 22.28125 -8 C 24.070312 -8 25.753906 -8.429688 27.328125 -9.296875 C 28.910156 -10.171875 30.171875 -11.476562 31.109375 -13.21875 C 32.054688 -14.96875 32.53125 -17.09375 32.53125 -19.59375 C 32.53125 -23.320312 31.550781 -26.1875 29.59375 -28.1875 C 27.644531 -30.1875 25.253906 -31.1875 22.421875 -31.1875 C 19.585938 -31.1875 17.21875 -30.1875 15.3125 -28.1875 C 13.40625 -26.1875 12.453125 -23.320312 12.453125 -19.59375 C 12.453125 -15.863281 13.378906 -13 15.234375 -11 C 17.097656 -9 19.445312 -8 22.28125 -8 Z M 22.28125 -8 "/></g></g></g><g fill="#f1f1f1" fill-opacity="1"><g transform="translate(274.422589, 261.392678)"><g><path d="M 14.78125 -33.53125 C 16.050781 -35.320312 17.804688 -36.816406 20.046875 -38.015625 C 22.285156 -39.222656 24.847656 -39.828125 27.734375 -39.828125 C 31.078125 -39.828125 34.101562 -39 36.8125 -37.34375 C 39.53125 -35.695312 41.675781 -33.351562 43.25 -30.3125 C 44.832031 -27.269531 45.625 -23.742188 45.625 -19.734375 C 45.625 -15.722656 44.832031 -12.171875 43.25 -9.078125 C 41.675781 -5.992188 39.53125 -3.601562 36.8125 -1.90625 C 34.101562 -0.207031 31.078125 0.640625 27.734375 0.640625 C 24.847656 0.640625 22.304688 0.0507812 20.109375 -1.125 C 17.921875 -2.3125 16.144531 -3.800781 14.78125 -5.59375 L 14.78125 18.671875 L 4.875 18.671875 L 4.875 -39.1875 L 14.78125 -39.1875 Z M 35.515625 -19.734375 C 35.515625 -22.085938 35.03125 -24.125 34.0625 -25.84375 C 33.09375 -27.570312 31.816406 -28.882812 30.234375 -29.78125 C 28.660156 -30.675781 26.953125 -31.125 25.109375 -31.125 C 23.316406 -31.125 21.628906 -30.660156 20.046875 -29.734375 C 18.472656 -28.816406 17.203125 -27.484375 16.234375 -25.734375 C 15.265625 -23.992188 14.78125 -21.945312 14.78125 -19.59375 C 14.78125 -17.238281 15.265625 -15.1875 16.234375 -13.4375 C 17.203125 -11.695312 18.472656 -10.363281 20.046875 -9.4375 C 21.628906 -8.519531 23.316406 -8.0625 25.109375 -8.0625 C 26.953125 -8.0625 28.660156 -8.53125 30.234375 -9.46875 C 31.816406 -10.414062 33.09375 -11.757812 34.0625 -13.5 C 35.03125 -15.25 35.515625 -17.328125 35.515625 -19.734375 Z M 35.515625 -19.734375 "/></g></g></g><path fill="#f1f1f1" d="M 73.421875 430.636719 C 72.65625 441.8125 69.96875 452.941406 65.226562 463.148438 C 64.222656 465.351562 63.160156 467.496094 62.050781 469.628906 C 45.808594 501.9375 18.746094 532.796875 -11.804688 536.351562 C -14.464844 536.660156 -17.539062 536.902344 -20.890625 537.003906 L -20.890625 336.042969 C -11.90625 335.835938 -3.058594 337.492188 5.03125 341.355469 C 8.484375 343.007812 11.773438 345.050781 14.917969 347.492188 C 17.199219 349.179688 19.613281 350.664062 22.140625 351.972656 C 24.664062 353.25 27.292969 354.320312 29.980469 355.179688 C 33.820312 356.285156 37.410156 357.765625 40.734375 359.59375 C 57.601562 368.726562 68.175781 386.425781 72.003906 406.484375 C 73.492188 414.292969 73.972656 422.460938 73.421875 430.636719 Z M 73.421875 430.636719 " fill-opacity="1" fill-rule="nonzero"/><g clip-path="url(#7eac968280)"><path fill="#f1f1f1" d="M 114.511719 278.015625 C 114.441406 289.84375 108.292969 300.152344 101.722656 309.570312 C 94.121094 321.257812 86.476562 333.121094 81.195312 346.050781 C 79.296875 351.914062 77.671875 357.84375 76.394531 363.878906 C 74.289062 374.1875 72.65625 384.015625 72.417969 388.875 C 71.867188 396.289062 72.28125 402.117188 72.003906 406.496094 C 71.523438 413.804688 69.101562 417.214844 56.804688 417.53125 C 36.277344 417.636719 -5.265625 391.976562 -17.53125 381.941406 C -18.640625 381.1875 -19.738281 380.425781 -20.882812 379.695312 L -20.882812 323.589844 C -13.382812 316.761719 -4.570312 307.796875 -1.460938 301.730469 C 7.691406 285.761719 14.46875 268.382812 25.042969 253.25 C 30.1875 244.867188 37.589844 238.21875 46.8125 234.628906 C 51.648438 232.460938 57.113281 232.074219 62.402344 232.074219 C 62.953125 232.039062 63.578125 232.074219 64.128906 232.109375 C 73.707031 232.039062 83.375 233.863281 91.808594 238.484375 C 103.421875 246.652344 103.730469 247.207031 109.46875 258.132812 C 112.671875 264.261719 114.886719 271.015625 114.511719 278.015625 Z M 114.511719 278.015625 " fill-opacity="1" fill-rule="nonzero"/></g><path fill="#f1b226" d="M 68.785156 308.78125 C 65.941406 314.222656 60.738281 318.441406 55.875 322.015625 C 54.082031 323.34375 52.363281 324.308594 50.722656 324.980469 C 50.429688 325.125 50.105469 325.234375 49.761719 325.320312 C 45.980469 326.605469 42.640625 326.152344 40.046875 324.285156 C 35.460938 322.757812 32.488281 317.984375 32.609375 310.128906 C 32.644531 303.871094 33.105469 296.886719 36.183594 291.316406 C 36.9375 289.894531 37.882812 288.582031 39.03125 287.390625 C 40.769531 285.761719 43.085938 285.515625 45.378906 285.386719 C 46.1875 285.335938 47.003906 285.292969 47.757812 285.25 C 50.222656 285.15625 52.644531 284.554688 55.078125 284.410156 C 55.996094 284.367188 58.777344 284.648438 60.167969 285.359375 C 61.542969 286.0625 62.902344 287.484375 64.144531 289.609375 C 65.21875 291.429688 66.078125 293.40625 67.246094 295.199219 C 67.675781 295.851562 68.132812 296.542969 68.550781 297.246094 C 69.789062 299.175781 70.921875 301.1875 70.640625 303.539062 C 70.269531 305.40625 69.652344 307.144531 68.785156 308.78125 Z M 68.785156 308.78125 " fill-opacity="1" fill-rule="nonzero"/><path fill="#000000" d="M 90.472656 277.871094 C 90.976562 278.128906 91.449219 278.433594 91.890625 278.785156 C 92.332031 279.140625 92.734375 279.535156 93.097656 279.96875 C 93.460938 280.40625 93.777344 280.875 94.050781 281.378906 C 94.320312 281.878906 94.539062 282.40625 94.707031 282.953125 C 94.875 283.503906 94.988281 284.0625 95.046875 284.636719 C 95.105469 285.214844 95.109375 285.789062 95.054688 286.367188 C 95.003906 286.945312 94.894531 287.511719 94.730469 288.074219 C 94.570312 288.632812 94.355469 289.171875 94.089844 289.691406 C 93.820312 290.207031 93.507812 290.699219 93.148438 291.15625 C 92.789062 291.613281 92.390625 292.035156 91.953125 292.417969 C 91.515625 292.796875 91.042969 293.132812 90.542969 293.421875 C 90.042969 293.710938 89.519531 293.945312 88.976562 294.132812 C 88.429688 294.316406 87.875 294.445312 87.308594 294.519531 C 86.742188 294.59375 86.175781 294.613281 85.609375 294.574219 C 85.042969 294.535156 84.484375 294.441406 83.941406 294.289062 C 83.394531 294.140625 82.871094 293.933594 82.367188 293.679688 C 81.863281 293.421875 81.390625 293.117188 80.949219 292.761719 C 80.503906 292.410156 80.101562 292.015625 79.738281 291.578125 C 79.375 291.140625 79.058594 290.671875 78.789062 290.171875 C 78.519531 289.667969 78.296875 289.144531 78.128906 288.59375 C 77.960938 288.046875 77.847656 287.484375 77.789062 286.910156 C 77.734375 286.335938 77.730469 285.757812 77.78125 285.179688 C 77.835938 284.605469 77.945312 284.035156 78.105469 283.476562 C 78.269531 282.917969 78.484375 282.378906 78.75 281.859375 C 79.015625 281.339844 79.328125 280.851562 79.6875 280.390625 C 80.046875 279.933594 80.445312 279.511719 80.886719 279.132812 C 81.324219 278.75 81.792969 278.417969 82.292969 278.128906 C 82.796875 277.839844 83.316406 277.601562 83.863281 277.417969 C 84.40625 277.230469 84.960938 277.101562 85.527344 277.027344 C 86.09375 276.953125 86.660156 276.933594 87.230469 276.972656 C 87.796875 277.011719 88.351562 277.109375 88.898438 277.257812 C 89.445312 277.410156 89.96875 277.613281 90.472656 277.871094 Z M 90.472656 277.871094 " fill-opacity="1" fill-rule="nonzero"/><path fill="#ffffff" d="M 88.558594 280.527344 C 88.5625 280.726562 88.503906 280.925781 88.386719 281.113281 C 88.265625 281.304688 88.089844 281.472656 87.867188 281.621094 C 87.640625 281.769531 87.375 281.882812 87.078125 281.96875 C 86.78125 282.050781 86.46875 282.097656 86.144531 282.105469 C 85.820312 282.109375 85.507812 282.078125 85.207031 282.007812 C 84.902344 281.9375 84.636719 281.832031 84.40625 281.695312 C 84.171875 281.554688 83.992188 281.394531 83.863281 281.210938 C 83.734375 281.027344 83.667969 280.832031 83.664062 280.632812 C 83.660156 280.429688 83.71875 280.234375 83.839844 280.042969 C 83.957031 279.855469 84.132812 279.683594 84.359375 279.539062 C 84.585938 279.390625 84.847656 279.273438 85.144531 279.191406 C 85.441406 279.105469 85.753906 279.058594 86.078125 279.054688 C 86.402344 279.046875 86.714844 279.078125 87.019531 279.148438 C 87.320312 279.21875 87.585938 279.324219 87.820312 279.464844 C 88.050781 279.601562 88.230469 279.761719 88.359375 279.945312 C 88.488281 280.128906 88.554688 280.324219 88.558594 280.527344 Z M 88.558594 280.527344 " fill-opacity="1" fill-rule="nonzero"/><path fill="#000000" d="M 51.304688 257.875 C 51.808594 258.132812 52.28125 258.4375 52.722656 258.789062 C 53.164062 259.144531 53.566406 259.539062 53.929688 259.976562 C 54.292969 260.410156 54.609375 260.878906 54.882812 261.382812 C 55.152344 261.882812 55.371094 262.410156 55.539062 262.957031 C 55.707031 263.507812 55.820312 264.070312 55.878906 264.644531 C 55.9375 265.21875 55.941406 265.792969 55.886719 266.371094 C 55.835938 266.949219 55.726562 267.519531 55.5625 268.078125 C 55.402344 268.636719 55.1875 269.175781 54.921875 269.695312 C 54.652344 270.214844 54.339844 270.703125 53.980469 271.160156 C 53.621094 271.621094 53.222656 272.039062 52.785156 272.421875 C 52.347656 272.800781 51.875 273.136719 51.375 273.425781 C 50.875 273.714844 50.351562 273.949219 49.808594 274.136719 C 49.265625 274.320312 48.707031 274.449219 48.140625 274.527344 C 47.574219 274.601562 47.007812 274.617188 46.441406 274.578125 C 45.875 274.539062 45.316406 274.445312 44.773438 274.292969 C 44.226562 274.144531 43.703125 273.941406 43.199219 273.683594 C 42.695312 273.425781 42.222656 273.121094 41.78125 272.765625 C 41.339844 272.414062 40.933594 272.019531 40.570312 271.582031 C 40.207031 271.144531 39.890625 270.675781 39.621094 270.175781 C 39.351562 269.671875 39.128906 269.148438 38.960938 268.597656 C 38.792969 268.050781 38.679688 267.488281 38.625 266.914062 C 38.566406 266.339844 38.5625 265.765625 38.613281 265.1875 C 38.667969 264.609375 38.777344 264.039062 38.9375 263.480469 C 39.101562 262.921875 39.316406 262.382812 39.582031 261.863281 C 39.847656 261.34375 40.160156 260.855469 40.519531 260.398438 C 40.878906 259.9375 41.277344 259.519531 41.71875 259.136719 C 42.15625 258.753906 42.625 258.421875 43.125 258.132812 C 43.628906 257.84375 44.148438 257.605469 44.695312 257.421875 C 45.238281 257.234375 45.792969 257.105469 46.359375 257.03125 C 46.925781 256.957031 47.492188 256.9375 48.0625 256.976562 C 48.628906 257.015625 49.183594 257.113281 49.730469 257.261719 C 50.277344 257.414062 50.800781 257.617188 51.304688 257.875 Z M 51.304688 257.875 " fill-opacity="1" fill-rule="nonzero"/><path fill="#ffffff" d="M 52.902344 262.078125 C 53.085938 262.34375 53.230469 262.621094 53.335938 262.914062 C 53.441406 263.203125 53.503906 263.484375 53.515625 263.753906 C 53.527344 264.023438 53.492188 264.261719 53.40625 264.46875 C 53.324219 264.679688 53.199219 264.839844 53.03125 264.953125 C 52.863281 265.070312 52.667969 265.128906 52.445312 265.132812 C 52.21875 265.136719 51.984375 265.085938 51.734375 264.976562 C 51.484375 264.871094 51.246094 264.714844 51.011719 264.511719 C 50.777344 264.308594 50.566406 264.074219 50.382812 263.808594 C 50.199219 263.542969 50.054688 263.265625 49.949219 262.972656 C 49.839844 262.683594 49.78125 262.402344 49.769531 262.132812 C 49.757812 261.863281 49.792969 261.625 49.878906 261.417969 C 49.960938 261.207031 50.085938 261.046875 50.253906 260.933594 C 50.421875 260.816406 50.617188 260.757812 50.839844 260.753906 C 51.066406 260.75 51.300781 260.800781 51.550781 260.910156 C 51.796875 261.015625 52.039062 261.171875 52.273438 261.375 C 52.507812 261.578125 52.714844 261.8125 52.902344 262.078125 Z M 52.902344 262.078125 " fill-opacity="1" fill-rule="nonzero"/><path fill="#daa32b" d="M 68.785156 308.78125 C 65.941406 314.222656 60.738281 318.441406 55.875 322.015625 C 54.082031 323.34375 52.363281 324.308594 50.722656 324.980469 C 50.429688 325.125 50.105469 325.234375 49.761719 325.320312 C 45.980469 326.605469 42.640625 326.152344 40.046875 324.285156 C 35.460938 322.757812 32.488281 317.984375 32.609375 310.128906 C 32.644531 303.871094 33.105469 296.886719 36.183594 291.316406 C 35.742188 293.90625 35.339844 296.40625 35.296875 298.4375 C 34.351562 307.367188 35.082031 322.320312 43.664062 322.460938 C 51.402344 322.8125 60.1875 315.613281 66.042969 311.214844 C 66.988281 310.4375 67.890625 309.628906 68.785156 308.78125 Z M 68.785156 308.78125 " fill-opacity="1" fill-rule="nonzero"/></svg>