<svg xmlns="http://www.w3.org/2000/svg" xmlns:xlink="http://www.w3.org/1999/xlink" width="500" zoomAndPan="magnify" viewBox="0 0 375 374.999991" height="500" preserveAspectRatio="xMidYMid meet" version="1.0"><defs><clipPath id="9307c38ffd"><path d="M 350 354.078125 L 375 354.078125 L 375 375 L 350 375 Z M 350 354.078125 " clip-rule="nonzero"/></clipPath><clipPath id="9932478a4e"><path d="M 58.359375 203 L 147 203 L 147 266 L 58.359375 266 Z M 58.359375 203 " clip-rule="nonzero"/></clipPath><clipPath id="a4463244eb"><path d="M 232 203 L 320.859375 203 L 320.859375 266 L 232 266 Z M 232 203 " clip-rule="nonzero"/></clipPath></defs><g clip-path="url(#9307c38ffd)"><path fill="#f1f1f1" d="M 476.171875 491.113281 C 474.257812 486.855469 471.347656 477.78125 468.636719 468.054688 C 467.109375 462.367188 465.910156 456.585938 464.949219 450.765625 C 463.804688 437.417969 465.136719 423.988281 466.5 410.707031 C 467.988281 399.828125 468.726562 388.34375 463.617188 378.238281 C 460.878906 372.113281 456.039062 367.320312 450.640625 363.519531 C 440.976562 356.6875 440.457031 356.335938 427.03125 354.429688 C 417.828125 354.160156 408.777344 356.828125 400.632812 361.03125 C 400.15625 361.246094 399.632812 361.492188 399.148438 361.753906 C 394.675781 364.070312 390.199219 366.761719 387 370.742188 C 380.707031 377.800781 377.328125 386.683594 376.582031 396.078125 C 374.199219 413.601562 376.039062 431.359375 375.207031 448.960938 C 375.234375 459.96875 364.96875 484.984375 362.742188 488.929688 C 360.984375 492.042969 359.058594 495.070312 357.105469 498.058594 C 356.058594 499.539062 354.8125 501.03125 353.792969 502.609375 C 353.003906 503.625 352.304688 504.609375 351.777344 505.539062 C 348.910156 512.121094 349.816406 518.125 357.785156 522.941406 C 363.40625 525.832031 369.941406 524.683594 375.964844 524.035156 C 382.792969 523.058594 389.722656 523.453125 396.535156 524.347656 C 411.382812 527.582031 457.960938 531.375 475.417969 522.34375 C 491.910156 513.328125 483.535156 508.640625 476.171875 491.113281 Z M 476.171875 491.113281 " fill-opacity="1" fill-rule="nonzero"/></g><path fill="#cccdcc" d="M 60.585938 257.867188 C 60.78125 259.753906 62.152344 260.78125 63.21875 260.199219 C 64.878906 259.015625 66.390625 256.839844 67.734375 255.007812 C 67.316406 256.636719 66.898438 258.367188 66.734375 259.371094 C 65.476562 268.65625 74.125 259.835938 77.605469 255.328125 C 77.113281 256.683594 76.605469 258.070312 76.273438 259.097656 C 75.726562 260.484375 75.570312 262.992188 76.875 263.21875 C 78 263.253906 78.953125 261.921875 79.894531 261.070312 C 82.082031 258.976562 85.042969 255.230469 86.972656 252.785156 C 86.589844 254.378906 86.121094 256.324219 85.867188 257.324219 C 85.316406 259.089844 84.996094 262.628906 86.71875 262.71875 C 88.289062 262.160156 89.519531 260.101562 90.890625 258.769531 C 92.507812 257.003906 94.871094 253.703125 96.226562 251.988281 C 95.152344 259.679688 92.753906 269.320312 100.101562 261.183594 C 101.910156 259.476562 104.144531 256.234375 105.5625 254.492188 C 105.324219 255.699219 104.964844 257.347656 104.921875 258.554688 C 104.757812 260.503906 105.980469 262.0625 107.050781 260.914062 C 111.179688 256.167969 114.816406 250.394531 118.222656 244.375 C 116.023438 259.230469 123.535156 247.914062 126.855469 242.316406 C 127.585938 241.074219 128.4375 239.164062 129.128906 237.535156 C 129.160156 241.191406 129.621094 245.460938 132.207031 243.636719 C 133.152344 242.691406 133.777344 241.191406 134.390625 239.746094 C 137.9375 231.402344 140.449219 222.058594 143.070312 212.894531 C 143.472656 211.425781 143.925781 209.6875 144.382812 207.828125 C 146.257812 200.285156 147.765625 192.449219 147.734375 184.3125 C 147.570312 180.273438 147.003906 176.242188 146.027344 172.464844 C 146.027344 172.433594 146.027344 172.433594 146.027344 172.433594 C 145.207031 169.191406 144.097656 166.160156 142.691406 163.507812 C 142.199219 162.359375 141.65625 161.265625 141.089844 160.230469 C 133.480469 147.414062 120.703125 148.679688 111.457031 155.871094 C 99.042969 166.980469 90.457031 187.550781 82.574219 205.644531 C 76.09375 220.523438 67.941406 232.234375 62.875 246.726562 C 62.515625 247.757812 62.167969 248.820312 61.839844 249.878906 C 61.242188 252.414062 60.445312 255.125 60.585938 257.867188 Z M 60.585938 257.867188 " fill-opacity="1" fill-rule="nonzero"/><path fill="#b0b0b0" d="M 60.585938 257.867188 C 60.78125 259.753906 62.152344 260.78125 63.21875 260.199219 C 64.878906 259.015625 66.390625 256.839844 67.734375 255.007812 C 67.316406 256.636719 66.898438 258.367188 66.734375 259.371094 C 65.476562 268.65625 74.125 259.835938 77.605469 255.328125 C 77.113281 256.683594 76.605469 258.070312 76.273438 259.097656 C 75.726562 260.484375 75.570312 262.992188 76.875 263.21875 C 78 263.253906 78.953125 261.921875 79.894531 261.070312 C 82.082031 258.976562 85.042969 255.230469 86.972656 252.785156 C 86.589844 254.378906 86.121094 256.324219 85.867188 257.324219 C 85.316406 259.089844 84.996094 262.628906 86.71875 262.71875 C 88.289062 262.160156 89.519531 260.101562 90.890625 258.769531 C 92.507812 257.003906 94.871094 253.703125 96.226562 251.988281 C 95.152344 259.679688 92.753906 269.320312 100.101562 261.183594 C 101.910156 259.476562 104.144531 256.234375 105.5625 254.492188 C 105.324219 255.699219 104.964844 257.347656 104.921875 258.554688 C 104.757812 260.503906 105.980469 262.0625 107.050781 260.914062 C 111.179688 256.167969 114.816406 250.394531 118.222656 244.375 C 116.023438 259.230469 123.535156 247.914062 126.855469 242.316406 C 127.585938 241.074219 128.4375 239.164062 129.128906 237.535156 C 129.160156 241.191406 129.621094 245.460938 132.207031 243.636719 C 133.152344 242.691406 133.777344 241.191406 134.390625 239.746094 C 137.9375 231.402344 140.449219 222.058594 143.070312 212.894531 C 143.472656 211.425781 143.925781 209.6875 144.382812 207.828125 C 144.417969 207.707031 144.449219 207.574219 144.472656 207.453125 C 146.648438 198.484375 140.023438 214.21875 138.078125 218.289062 C 136.984375 220.574219 135.523438 223.054688 134.300781 225.039062 C 133.144531 226.921875 132.289062 227.890625 130.941406 225.703125 C 130.703125 225.328125 130.382812 224.964844 130.128906 224.859375 C 128.546875 224.210938 127.945312 227.453125 127.199219 229.070312 C 126 232.460938 123.996094 236.171875 122.832031 236.96875 C 122.757812 237.027344 122.683594 237.027344 122.609375 237.058594 C 122.519531 236.824219 122.429688 236.59375 122.355469 236.355469 C 121.410156 231.4375 120.171875 230.960938 117.550781 235.796875 C 115.21875 240.007812 111.21875 246.996094 110.726562 246.085938 C 110.710938 246.050781 110.710938 246.050781 110.695312 246.027344 C 110.605469 245.640625 110.605469 245.765625 110.457031 244.695312 C 110.425781 242.101562 109.09375 240.246094 107.617188 241.898438 C 105.5625 244.640625 102.707031 248.882812 101.902344 249.054688 L 101.8125 249.054688 C 101.792969 249.023438 101.792969 249 101.738281 248.875 C 101.703125 248.875 101.285156 245.609375 101.0625 244.484375 C 100.167969 239.53125 97.910156 241.535156 96.1875 244.074219 C 95.347656 245.042969 94.019531 246.988281 92.550781 248.261719 C 92.476562 248.316406 92.386719 248.375 92.3125 248.40625 L 92.179688 248.40625 C 92.121094 248.375 92.054688 248.351562 92 248.316406 C 91.984375 248.316406 91.984375 248.316406 91.941406 248.285156 C 91.539062 248.046875 91.34375 246.101562 90.503906 243.925781 C 89.726562 242.242188 88.378906 243.128906 87.539062 244.253906 C 86.359375 245.609375 86.359375 245.9375 84.355469 247.964844 C 83.410156 248.875 82.695312 249.589844 82.113281 249.820312 C 82.097656 249.820312 82.082031 249.820312 82.082031 249.820312 C 82.0625 249.789062 82.046875 249.789062 82.007812 249.761719 C 81.988281 249.730469 81.972656 249.671875 81.933594 249.648438 C 81.898438 249.53125 81.824219 249.328125 81.769531 249.179688 C 81.753906 248.941406 81.496094 247.347656 81.351562 246.675781 C 79.929688 241.339844 76.070312 247.941406 74.125 249.238281 C 72.761719 250.417969 72.210938 250.773438 71.832031 250.355469 C 71.832031 250.355469 71.832031 250.355469 71.816406 250.320312 C 71.578125 249.707031 71.695312 250.082031 71.546875 249.171875 C 71.292969 248.375 71.726562 246.960938 70.816406 245.8125 C 69.46875 244.84375 68.121094 247.28125 66.972656 248.167969 C 65.296875 249.851562 64.953125 250.445312 64.222656 250 C 64.148438 249.941406 64.097656 249.910156 64.058594 249.886719 C 64.058594 249.851562 64 249.828125 63.910156 249.714844 C 63.835938 249.625 63.777344 249.53125 63.730469 249.449219 C 63.730469 249.417969 63.730469 249.417969 63.730469 249.417969 C 63.65625 249.269531 63.582031 249.03125 63.546875 248.882812 C 63.402344 248.144531 63.1875 247.292969 62.875 246.734375 C 62.515625 247.765625 62.167969 248.828125 61.839844 249.886719 C 61.242188 252.414062 60.445312 255.125 60.585938 257.867188 Z M 60.585938 257.867188 " fill-opacity="1" fill-rule="nonzero"/><g clip-path="url(#9932478a4e)"><path fill="#999999" d="M 60 249.054688 C 60.214844 246.757812 62.457031 245.609375 63.515625 247.898438 C 63.613281 249.648438 62.5625 251.324219 62.480469 253.097656 C 62.472656 253.851562 62.011719 256.339844 62.636719 257.503906 C 62.660156 257.554688 62.671875 257.578125 62.679688 257.613281 C 62.695312 257.636719 62.695312 257.644531 62.710938 257.679688 C 62.777344 257.785156 62.785156 257.808594 62.816406 257.859375 C 62.875 257.917969 62.917969 257.957031 62.949219 257.988281 C 63.023438 257.972656 63.105469 257.949219 63.179688 257.925781 C 64.917969 256.921875 64.691406 255.609375 66.839844 254.394531 C 68.761719 254.007812 69.363281 255.839844 68.851562 257.390625 C 68.539062 259.394531 68.359375 259.558594 68.777344 261.117188 C 68.777344 261.125 68.789062 261.132812 68.789062 261.144531 C 68.820312 261.144531 68.84375 261.144531 68.878906 261.144531 C 69.050781 261.109375 69.222656 261.070312 69.386719 261.003906 C 69.738281 260.796875 70.75 260.238281 70.921875 260.035156 C 71.898438 259.402344 73.746094 257.660156 74.519531 256.339844 C 75.207031 255.519531 75.570312 254.222656 76.667969 253.867188 C 77.515625 253.605469 78.5 254.1875 78.714844 255.035156 C 78.902344 256.042969 78.359375 257.003906 78.214844 258 C 78 258.902344 77.894531 260.140625 77.992188 261.035156 C 78.230469 260.960938 78.261719 260.898438 79.082031 260.4375 C 79.617188 260.445312 83.679688 255.960938 82.875 256.734375 C 84.75 254.769531 85.300781 250.296875 88.199219 251.816406 C 89.898438 253.316406 87.574219 255.691406 87.292969 258.375 C 87.277344 258.5 87.269531 258.515625 87.261719 258.554688 C 87.246094 258.710938 87.230469 258.875 87.230469 259.03125 C 87.195312 259.277344 87.246094 259.84375 87.261719 260.066406 C 87.269531 260.09375 87.269531 260.109375 87.277344 260.132812 C 87.785156 259.953125 88.007812 259.722656 88.492188 259.328125 C 89.125 258.84375 91.425781 256.085938 91.710938 255.738281 C 93.015625 254.253906 93.714844 252.09375 95.429688 251.035156 C 96.417969 250.550781 97.707031 251.289062 97.78125 252.390625 C 97.378906 255.65625 96.121094 258.894531 96.277344 261.101562 C 96.285156 261.144531 96.285156 261.160156 96.300781 261.21875 C 96.328125 261.332031 96.375 261.445312 96.410156 261.554688 C 96.441406 261.601562 96.472656 261.652344 96.515625 261.710938 C 96.546875 261.703125 96.582031 261.691406 96.613281 261.675781 C 96.851562 261.554688 97.074219 261.414062 97.296875 261.265625 C 99.742188 259.582031 103.511719 254.542969 103.707031 254.238281 C 104.40625 252.816406 106.574219 252.695312 107.050781 254.34375 C 107.230469 255.238281 106.886719 256.035156 106.804688 256.914062 C 106.777344 257.25 106.722656 257.570312 106.695312 257.890625 C 110.332031 254.746094 113.660156 248.820312 116.707031 243.398438 C 117.394531 242.136719 119.457031 242.308594 119.808594 243.753906 C 119.957031 244.960938 119.578125 246.222656 119.5625 247.449219 C 119.53125 247.667969 119.554688 248.097656 119.5625 248.300781 C 119.578125 248.382812 119.585938 248.457031 119.613281 248.539062 C 119.808594 248.417969 119.972656 248.300781 120.046875 248.242188 C 123.042969 245.648438 125.0625 241.238281 127.585938 237.027344 C 128.554688 236.042969 130.277344 236.625 130.558594 237.957031 C 130.761719 239.21875 130.96875 240.386719 131.238281 241.082031 C 131.246094 241.074219 131.253906 241.074219 131.261719 241.066406 C 135.15625 237.585938 138.0625 227.3125 140.03125 219.316406 C 141.617188 214.488281 142.25 207.921875 143.265625 204.496094 C 144.238281 203.066406 146.699219 204.25 146.15625 205.933594 C 145.492188 211.476562 143.003906 221.550781 140.992188 228.503906 C 139.308594 233.710938 137.585938 239.246094 133.726562 243.285156 C 131.886719 245.171875 129.292969 244.886719 128.28125 242.546875 C 126.550781 245.664062 123.921875 249.6875 121.179688 251.453125 C 119.085938 252.71875 117.453125 251.757812 116.695312 250.097656 C 114.355469 254.039062 111.1875 258.6875 107.878906 261.28125 C 105.695312 262.703125 104.167969 261.488281 103.617188 259.664062 C 102.945312 260.453125 102.195312 261.289062 101.402344 262.078125 C 100.011719 263.34375 98.535156 264.878906 96.5625 265.035156 C 93.296875 264.789062 92.820312 262.121094 93.089844 259.328125 C 91.351562 261.445312 89.222656 263.375 86.941406 263.492188 C 85.585938 263.433594 84.378906 262.414062 84.109375 261.085938 C 84.058594 260.863281 84.082031 260.640625 84.050781 260.410156 C 83.023438 261.570312 81.867188 262.652344 80.554688 263.402344 C 78.386719 264.917969 75.183594 264.976562 74.730469 261.792969 C 74.699219 261.5625 74.714844 261.339844 74.699219 261.109375 C 73.925781 261.847656 73.105469 262.554688 72.195312 263.144531 C 70.9375 264.066406 69.355469 264.707031 67.785156 264.3125 C 66.003906 263.703125 65.402344 262.144531 65.289062 260.421875 C 64.589844 260.914062 63.8125 261.273438 62.941406 261.28125 C 61.59375 261.296875 60.363281 260.394531 59.789062 259.203125 C 58.328125 256.027344 59.15625 252.316406 60 249.054688 Z M 60 249.054688 " fill-opacity="1" fill-rule="nonzero"/></g><path fill="#f1b226" d="M 174.230469 337.167969 C 174.304688 336.363281 174.199219 330.375 174.132812 328.847656 C 173.84375 322.394531 174.058594 306.761719 173.894531 292.984375 C 173.769531 282.941406 173.277344 273.761719 173.417969 269.953125 C 173.574219 265.921875 172.613281 265.578125 168.785156 265.207031 C 167.039062 265.09375 166.398438 265.363281 165.730469 265.667969 C 164.820312 266.078125 164.773438 267.507812 164.761719 267.851562 C 164.679688 269.96875 164.320312 284.652344 164.179688 292.1875 C 163.804688 312.417969 165.273438 332.167969 165.289062 352.300781 C 166.003906 354.457031 172.195312 354.433594 173.335938 352.390625 C 174.886719 347.59375 174.097656 342.652344 174.230469 337.167969 Z M 174.230469 337.167969 " fill-opacity="1" fill-rule="nonzero"/><path fill="#f1b226" d="M 174.675781 350.425781 C 174.410156 349.769531 174.296875 346.988281 174.28125 346.527344 C 174.230469 345.320312 172.425781 342.773438 170.402344 342.585938 C 168.753906 342.429688 167.25 342.765625 166.4375 343.515625 C 165.960938 343.949219 165.183594 345.296875 165.238281 346.355469 C 165.394531 349.449219 163.34375 351.101562 161.726562 352.363281 C 160.445312 353.367188 157.882812 354.054688 156.363281 354.605469 C 154.148438 355.410156 150.507812 355.847656 147.585938 357.019531 C 146.839844 357.121094 142.496094 359.542969 143.226562 361.699219 C 143.398438 362.203125 143.75 363.039062 145.402344 363.226562 C 148.128906 363.539062 151.058594 361.882812 152.808594 362.75 C 153.785156 363.246094 150.796875 365.765625 149.894531 367.71875 C 148.867188 369.945312 151.140625 370.878906 152.070312 370.847656 C 153.097656 370.804688 154.210938 370.320312 155.097656 369.8125 C 158.253906 367.898438 160.632812 365.429688 161.898438 366.199219 C 162.660156 366.667969 162.085938 367.882812 161.957031 368.753906 C 161.460938 371.859375 163.5 374.929688 166.199219 373.382812 C 169.609375 371.445312 170.476562 367.09375 172.972656 364.214844 C 173.738281 363.164062 174.261719 362.078125 175.160156 361.378906 C 175.488281 361.125 177.515625 359.878906 177.867188 359.753906 C 182.613281 357.101562 176.101562 354.074219 174.675781 350.425781 Z M 174.675781 350.425781 " fill-opacity="1" fill-rule="nonzero"/><path fill="#f1b226" d="M 205.84375 337.167969 C 205.769531 336.363281 205.875 330.375 205.941406 328.847656 C 206.226562 322.394531 206.015625 306.761719 206.179688 292.984375 C 206.300781 282.941406 206.792969 273.761719 206.65625 269.953125 C 206.5 265.921875 207.460938 265.578125 211.285156 265.207031 C 213.035156 265.09375 213.675781 265.363281 214.339844 265.667969 C 215.25 266.078125 215.300781 267.507812 215.308594 267.851562 C 215.390625 269.96875 215.753906 284.652344 215.890625 292.1875 C 216.269531 312.417969 214.800781 332.167969 214.785156 352.300781 C 214.070312 354.457031 207.878906 354.433594 206.738281 352.390625 C 205.183594 347.59375 205.972656 342.652344 205.84375 337.167969 Z M 205.84375 337.167969 " fill-opacity="1" fill-rule="nonzero"/><path fill="#f1b226" d="M 205.398438 350.425781 C 205.660156 349.769531 205.777344 346.988281 205.792969 346.527344 C 205.84375 345.320312 207.648438 342.773438 209.667969 342.585938 C 211.320312 342.429688 212.820312 342.765625 213.632812 343.515625 C 214.109375 343.949219 214.890625 345.296875 214.832031 346.355469 C 214.675781 349.449219 216.730469 351.101562 218.347656 352.363281 C 219.628906 353.367188 222.191406 354.054688 223.707031 354.605469 C 225.925781 355.410156 229.5625 355.847656 232.488281 357.019531 C 233.234375 357.121094 237.578125 359.542969 236.847656 361.699219 C 236.675781 362.203125 236.320312 363.039062 234.671875 363.226562 C 231.945312 363.539062 229.011719 361.882812 227.265625 362.75 C 226.289062 363.246094 229.277344 365.765625 230.179688 367.71875 C 231.207031 369.945312 228.929688 370.878906 228.003906 370.847656 C 226.976562 370.804688 225.859375 370.320312 224.972656 369.8125 C 221.820312 367.898438 219.4375 365.429688 218.175781 366.199219 C 217.410156 366.667969 217.984375 367.882812 218.117188 368.753906 C 218.609375 371.859375 216.574219 374.929688 213.871094 373.382812 C 210.464844 371.445312 209.59375 367.09375 207.097656 364.214844 C 206.335938 363.164062 205.808594 362.078125 204.914062 361.378906 C 204.585938 361.125 202.558594 359.878906 202.203125 359.753906 C 197.457031 357.101562 203.960938 354.074219 205.398438 350.425781 Z M 205.398438 350.425781 " fill-opacity="1" fill-rule="nonzero"/><path fill="#f1f1f1" d="M 275.230469 203.519531 C 274.820312 192.746094 272.226562 182.0625 268 172.195312 C 257.011719 146.519531 234.671875 126.492188 209.199219 125.84375 C 205.5625 125.746094 201.859375 126.042969 198.117188 126.78125 C 195.4375 127.214844 192.730469 127.4375 190.027344 127.4375 C 187.328125 127.4375 184.617188 127.214844 181.941406 126.78125 C 178.195312 126.050781 174.492188 125.746094 170.855469 125.84375 C 145.386719 126.492188 123.042969 146.527344 112.058594 172.195312 C 107.828125 182.054688 105.234375 192.746094 104.824219 203.519531 C 104.71875 205.816406 104.675781 208.117188 104.691406 210.433594 C 104.414062 245.058594 113.980469 283.171875 138.429688 299.488281 C 148.671875 306.320312 167.671875 316.269531 190.027344 315.738281 C 212.386719 316.261719 231.378906 306.320312 241.625 299.488281 C 266.078125 283.164062 275.640625 245.050781 275.363281 210.433594 C 275.386719 208.117188 275.347656 205.808594 275.230469 203.519531 Z M 275.230469 203.519531 " fill-opacity="1" fill-rule="nonzero"/><path fill="#f1f1f1" d="M 248.539062 137.027344 C 246.625 132.765625 243.71875 123.695312 241.007812 113.964844 C 239.480469 108.273438 238.28125 102.492188 237.324219 96.671875 C 236.179688 83.320312 237.511719 69.886719 238.875 56.601562 C 240.359375 45.722656 241.097656 34.238281 235.992188 24.128906 C 233.257812 18.003906 228.421875 13.207031 223.027344 9.40625 C 213.371094 2.574219 212.855469 2.222656 199.4375 0.316406 C 190.242188 0.046875 181.203125 2.714844 173.066406 6.917969 C 172.589844 7.132812 172.0625 7.378906 171.578125 7.640625 C 167.113281 9.957031 162.636719 12.652344 159.441406 16.632812 C 153.152344 23.695312 149.777344 32.578125 149.03125 41.972656 C 146.652344 59.5 148.488281 77.261719 147.660156 94.867188 C 147.683594 105.875 137.429688 130.894531 135.203125 134.84375 C 133.449219 137.957031 131.527344 140.984375 129.570312 143.972656 C 128.527344 145.453125 127.28125 146.945312 126.261719 148.523438 C 125.476562 149.542969 124.777344 150.527344 124.25 151.453125 C 121.386719 158.039062 122.289062 164.042969 130.253906 168.863281 C 135.871094 171.75 142.398438 170.601562 148.414062 169.953125 C 155.238281 168.976562 162.160156 169.371094 168.96875 170.265625 C 183.804688 173.5 230.34375 177.292969 247.78125 168.261719 C 264.261719 159.246094 255.902344 154.558594 248.539062 137.027344 Z M 248.539062 137.027344 " fill-opacity="1" fill-rule="nonzero"/><path fill="#f1b226" d="M 210.898438 70.289062 C 210.851562 76.167969 208.273438 82.03125 205.6875 87.203125 C 204.742188 89.117188 203.699219 90.6875 202.589844 91.984375 C 202.410156 92.238281 202.179688 92.46875 201.925781 92.699219 C 199.273438 95.441406 196.226562 96.507812 193.207031 96.039062 C 188.640625 96.730469 184.027344 93.960938 180.699219 87.203125 C 178 81.851562 175.347656 75.691406 175.527344 69.601562 C 175.550781 68.058594 175.78125 66.53125 176.242188 65.011719 C 177.003906 62.867188 178.871094 61.644531 180.765625 60.535156 C 181.441406 60.140625 182.105469 59.746094 182.730469 59.386719 C 184.78125 58.238281 186.578125 56.660156 188.589844 55.488281 C 189.355469 55.050781 191.84375 54.082031 193.34375 54.082031 C 194.824219 54.082031 196.597656 54.707031 198.582031 55.972656 C 200.292969 57.054688 201.882812 58.367188 203.65625 59.386719 C 204.308594 59.757812 204.996094 60.148438 205.660156 60.5625 C 207.558594 61.667969 209.398438 62.890625 210.1875 65.011719 C 210.6875 66.761719 210.925781 68.507812 210.898438 70.289062 Z M 210.898438 70.289062 " fill-opacity="1" fill-rule="nonzero"/><path fill="#000000" d="M 224.085938 42.964844 C 224.085938 43.523438 224.035156 44.078125 223.929688 44.625 C 223.824219 45.171875 223.667969 45.703125 223.460938 46.21875 C 223.253906 46.734375 223 47.226562 222.699219 47.691406 C 222.398438 48.15625 222.058594 48.585938 221.675781 48.980469 C 221.292969 49.375 220.875 49.726562 220.425781 50.039062 C 219.976562 50.347656 219.503906 50.609375 219.003906 50.824219 C 218.503906 51.039062 217.988281 51.199219 217.457031 51.308594 C 216.925781 51.417969 216.390625 51.472656 215.851562 51.472656 C 215.308594 51.472656 214.773438 51.417969 214.246094 51.308594 C 213.714844 51.199219 213.199219 51.039062 212.699219 50.824219 C 212.199219 50.609375 211.726562 50.347656 211.277344 50.039062 C 210.824219 49.726562 210.410156 49.375 210.027344 48.980469 C 209.644531 48.585938 209.304688 48.15625 209.003906 47.691406 C 208.703125 47.226562 208.449219 46.734375 208.242188 46.21875 C 208.035156 45.703125 207.878906 45.171875 207.773438 44.625 C 207.667969 44.078125 207.617188 43.523438 207.617188 42.964844 C 207.617188 42.40625 207.667969 41.851562 207.773438 41.304688 C 207.878906 40.757812 208.035156 40.226562 208.242188 39.710938 C 208.449219 39.195312 208.703125 38.703125 209.003906 38.238281 C 209.304688 37.773438 209.644531 37.34375 210.027344 36.949219 C 210.410156 36.554688 210.824219 36.203125 211.277344 35.890625 C 211.726562 35.582031 212.199219 35.320312 212.699219 35.105469 C 213.199219 34.890625 213.714844 34.730469 214.246094 34.621094 C 214.773438 34.511719 215.308594 34.457031 215.851562 34.457031 C 216.390625 34.457031 216.925781 34.511719 217.457031 34.621094 C 217.988281 34.730469 218.503906 34.890625 219.003906 35.105469 C 219.503906 35.320312 219.976562 35.582031 220.425781 35.890625 C 220.875 36.203125 221.292969 36.554688 221.675781 36.949219 C 222.058594 37.34375 222.398438 37.773438 222.699219 38.238281 C 223 38.703125 223.253906 39.195312 223.460938 39.710938 C 223.667969 40.226562 223.824219 40.757812 223.929688 41.304688 C 224.035156 41.851562 224.085938 42.40625 224.085938 42.964844 Z M 224.085938 42.964844 " fill-opacity="1" fill-rule="nonzero"/><path fill="#ffffff" d="M 215.386719 37.597656 C 215.480469 37.765625 215.515625 37.960938 215.496094 38.171875 C 215.476562 38.386719 215.402344 38.605469 215.273438 38.832031 C 215.144531 39.054688 214.972656 39.269531 214.757812 39.46875 C 214.539062 39.671875 214.292969 39.847656 214.019531 39.992188 C 213.746094 40.140625 213.46875 40.25 213.179688 40.320312 C 212.890625 40.390625 212.617188 40.417969 212.359375 40.402344 C 212.101562 40.386719 211.878906 40.324219 211.6875 40.226562 C 211.5 40.125 211.359375 39.988281 211.265625 39.816406 C 211.175781 39.644531 211.140625 39.453125 211.160156 39.238281 C 211.179688 39.027344 211.253906 38.808594 211.378906 38.582031 C 211.507812 38.355469 211.679688 38.144531 211.898438 37.941406 C 212.113281 37.742188 212.359375 37.566406 212.632812 37.421875 C 212.90625 37.273438 213.1875 37.164062 213.472656 37.09375 C 213.761719 37.023438 214.035156 36.996094 214.292969 37.011719 C 214.550781 37.027344 214.773438 37.085938 214.964844 37.1875 C 215.152344 37.289062 215.292969 37.425781 215.386719 37.597656 Z M 215.386719 37.597656 " fill-opacity="1" fill-rule="nonzero"/><path fill="#000000" d="M 182.023438 42.964844 C 182.023438 43.523438 181.96875 44.078125 181.863281 44.625 C 181.757812 45.171875 181.601562 45.703125 181.394531 46.21875 C 181.1875 46.734375 180.933594 47.226562 180.632812 47.691406 C 180.335938 48.15625 179.992188 48.585938 179.609375 48.980469 C 179.226562 49.375 178.8125 49.726562 178.363281 50.039062 C 177.914062 50.347656 177.4375 50.609375 176.9375 50.824219 C 176.4375 51.039062 175.925781 51.199219 175.394531 51.308594 C 174.863281 51.417969 174.328125 51.472656 173.789062 51.472656 C 173.246094 51.472656 172.710938 51.417969 172.179688 51.308594 C 171.648438 51.199219 171.136719 51.039062 170.636719 50.824219 C 170.136719 50.609375 169.660156 50.347656 169.210938 50.039062 C 168.761719 49.726562 168.347656 49.375 167.964844 48.980469 C 167.582031 48.585938 167.238281 48.15625 166.941406 47.691406 C 166.640625 47.226562 166.386719 46.734375 166.179688 46.21875 C 165.972656 45.703125 165.816406 45.171875 165.710938 44.625 C 165.605469 44.078125 165.550781 43.523438 165.550781 42.964844 C 165.550781 42.40625 165.605469 41.851562 165.710938 41.304688 C 165.816406 40.757812 165.972656 40.226562 166.179688 39.710938 C 166.386719 39.195312 166.640625 38.703125 166.941406 38.238281 C 167.238281 37.773438 167.582031 37.34375 167.964844 36.949219 C 168.347656 36.554688 168.761719 36.203125 169.210938 35.890625 C 169.660156 35.582031 170.136719 35.320312 170.636719 35.105469 C 171.136719 34.890625 171.648438 34.730469 172.179688 34.621094 C 172.710938 34.511719 173.246094 34.457031 173.789062 34.457031 C 174.328125 34.457031 174.863281 34.511719 175.394531 34.621094 C 175.925781 34.730469 176.4375 34.890625 176.9375 35.105469 C 177.4375 35.320312 177.914062 35.582031 178.363281 35.890625 C 178.8125 36.203125 179.226562 36.554688 179.609375 36.949219 C 179.992188 37.34375 180.335938 37.773438 180.632812 38.238281 C 180.933594 38.703125 181.1875 39.195312 181.394531 39.710938 C 181.601562 40.226562 181.757812 40.757812 181.863281 41.304688 C 181.96875 41.851562 182.023438 42.40625 182.023438 42.964844 Z M 182.023438 42.964844 " fill-opacity="1" fill-rule="nonzero"/><path fill="#ffffff" d="M 176.988281 37.40625 C 177.261719 37.550781 177.507812 37.726562 177.722656 37.925781 C 177.941406 38.128906 178.113281 38.34375 178.242188 38.566406 C 178.371094 38.792969 178.445312 39.011719 178.464844 39.226562 C 178.484375 39.4375 178.445312 39.632812 178.355469 39.800781 C 178.261719 39.972656 178.121094 40.109375 177.933594 40.210938 C 177.742188 40.3125 177.519531 40.371094 177.261719 40.386719 C 177.003906 40.402344 176.730469 40.375 176.441406 40.304688 C 176.15625 40.234375 175.875 40.125 175.601562 39.976562 C 175.328125 39.832031 175.082031 39.65625 174.867188 39.453125 C 174.648438 39.253906 174.476562 39.039062 174.347656 38.816406 C 174.21875 38.589844 174.144531 38.371094 174.125 38.15625 C 174.105469 37.945312 174.144531 37.75 174.234375 37.582031 C 174.328125 37.410156 174.46875 37.273438 174.65625 37.171875 C 174.847656 37.070312 175.070312 37.011719 175.328125 36.996094 C 175.585938 36.980469 175.859375 37.007812 176.148438 37.078125 C 176.433594 37.148438 176.714844 37.257812 176.988281 37.40625 Z M 176.988281 37.40625 " fill-opacity="1" fill-rule="nonzero"/><path fill="#daa32b" d="M 210.898438 70.289062 C 210.851562 76.167969 208.273438 82.03125 205.6875 87.203125 C 204.742188 89.117188 203.699219 90.6875 202.589844 91.984375 C 202.410156 92.238281 202.179688 92.46875 201.925781 92.699219 C 199.273438 95.441406 196.226562 96.507812 193.207031 96.039062 C 188.640625 96.730469 184.027344 93.960938 180.699219 87.203125 C 178 81.851562 175.347656 75.691406 175.527344 69.601562 C 176.292969 72 177.03125 74.304688 177.882812 76.0625 C 180.980469 84.09375 188.132812 96.523438 195.488281 92.902344 C 202.230469 89.832031 206.566406 79.863281 209.636719 73.566406 C 210.085938 72.472656 210.507812 71.390625 210.898438 70.289062 Z M 210.898438 70.289062 " fill-opacity="1" fill-rule="nonzero"/><path fill="#cccdcc" d="M 318.570312 257.867188 C 318.371094 259.753906 317 260.78125 315.933594 260.199219 C 314.273438 259.015625 312.761719 256.839844 311.417969 255.007812 C 311.835938 256.636719 312.253906 258.367188 312.417969 259.371094 C 313.675781 268.65625 305.027344 259.835938 301.546875 255.328125 C 302.039062 256.683594 302.550781 258.070312 302.878906 259.097656 C 303.425781 260.484375 303.582031 262.992188 302.277344 263.21875 C 301.152344 263.253906 300.199219 261.921875 299.257812 261.070312 C 297.074219 258.976562 294.109375 255.230469 292.179688 252.785156 C 292.566406 254.378906 293.03125 256.324219 293.289062 257.324219 C 293.835938 259.089844 294.15625 262.628906 292.433594 262.71875 C 290.863281 262.160156 289.632812 260.101562 288.261719 258.769531 C 286.644531 257.003906 284.28125 253.703125 282.925781 251.988281 C 284 259.679688 286.398438 269.320312 279.050781 261.183594 C 277.242188 259.476562 275.011719 256.234375 273.589844 254.492188 C 273.828125 255.699219 274.1875 257.347656 274.230469 258.554688 C 274.394531 260.503906 273.171875 262.0625 272.101562 260.914062 C 267.972656 256.167969 264.335938 250.394531 260.929688 244.375 C 263.128906 259.230469 255.617188 247.914062 252.300781 242.316406 C 251.566406 241.074219 250.714844 239.164062 250.023438 237.535156 C 249.992188 241.191406 249.53125 245.460938 246.945312 243.636719 C 246 242.691406 245.378906 241.191406 244.761719 239.746094 C 241.214844 231.402344 238.703125 222.058594 236.082031 212.894531 C 235.679688 211.425781 235.230469 209.6875 234.769531 207.828125 C 232.898438 200.285156 231.386719 192.449219 231.417969 184.3125 C 231.582031 180.273438 232.148438 176.242188 233.125 172.464844 C 233.125 172.433594 233.125 172.433594 233.125 172.433594 C 233.949219 169.191406 235.054688 166.160156 236.460938 163.507812 C 236.953125 162.359375 237.496094 161.265625 238.0625 160.230469 C 245.671875 147.414062 258.449219 148.679688 267.695312 155.871094 C 280.109375 166.980469 288.699219 187.550781 296.578125 205.644531 C 303.058594 220.523438 311.210938 232.234375 316.277344 246.726562 C 316.640625 247.757812 316.984375 248.820312 317.3125 249.878906 C 317.910156 252.414062 318.714844 255.125 318.570312 257.867188 Z M 318.570312 257.867188 " fill-opacity="1" fill-rule="nonzero"/><path fill="#b0b0b0" d="M 318.570312 257.867188 C 318.371094 259.753906 317 260.78125 315.933594 260.199219 C 314.273438 259.015625 312.761719 256.839844 311.417969 255.007812 C 311.835938 256.636719 312.253906 258.367188 312.417969 259.371094 C 313.675781 268.65625 305.027344 259.835938 301.546875 255.328125 C 302.039062 256.683594 302.550781 258.070312 302.878906 259.097656 C 303.425781 260.484375 303.582031 262.992188 302.277344 263.21875 C 301.152344 263.253906 300.199219 261.921875 299.257812 261.070312 C 297.074219 258.976562 294.109375 255.230469 292.179688 252.785156 C 292.566406 254.378906 293.03125 256.324219 293.289062 257.324219 C 293.835938 259.089844 294.15625 262.628906 292.433594 262.71875 C 290.863281 262.160156 289.632812 260.101562 288.261719 258.769531 C 286.644531 257.003906 284.28125 253.703125 282.925781 251.988281 C 284 259.679688 286.398438 269.320312 279.050781 261.183594 C 277.242188 259.476562 275.011719 256.234375 273.589844 254.492188 C 273.828125 255.699219 274.1875 257.347656 274.230469 258.554688 C 274.394531 260.503906 273.171875 262.0625 272.101562 260.914062 C 267.972656 256.167969 264.335938 250.394531 260.929688 244.375 C 263.128906 259.230469 255.617188 247.914062 252.300781 242.316406 C 251.566406 241.074219 250.714844 239.164062 250.023438 237.535156 C 249.992188 241.191406 249.53125 245.460938 246.945312 243.636719 C 246 242.691406 245.378906 241.191406 244.761719 239.746094 C 241.214844 231.402344 238.703125 222.058594 236.082031 212.894531 C 235.679688 211.425781 235.230469 209.6875 234.769531 207.828125 C 234.734375 207.707031 234.703125 207.574219 234.679688 207.453125 C 232.503906 198.484375 239.128906 214.21875 241.074219 218.289062 C 242.167969 220.574219 243.628906 223.054688 244.851562 225.039062 C 246.007812 226.921875 246.863281 227.890625 248.210938 225.703125 C 248.449219 225.328125 248.769531 224.964844 249.023438 224.859375 C 250.609375 224.210938 251.207031 227.453125 251.953125 229.070312 C 253.152344 232.460938 255.15625 236.171875 256.324219 236.96875 C 256.394531 237.027344 256.46875 237.027344 256.542969 237.058594 C 256.632812 236.824219 256.726562 236.59375 256.796875 236.355469 C 257.742188 231.4375 258.984375 230.960938 261.601562 235.796875 C 263.933594 240.007812 267.933594 246.996094 268.425781 246.085938 C 268.441406 246.050781 268.441406 246.050781 268.457031 246.027344 C 268.546875 245.640625 268.546875 245.765625 268.695312 244.695312 C 268.730469 242.101562 270.058594 240.246094 271.535156 241.898438 C 273.589844 244.640625 276.445312 248.882812 277.25 249.054688 L 277.34375 249.054688 C 277.359375 249.023438 277.359375 249 277.414062 248.875 C 277.449219 248.875 277.867188 245.609375 278.089844 244.484375 C 278.984375 239.53125 281.242188 241.535156 282.964844 244.074219 C 283.804688 245.042969 285.132812 246.988281 286.605469 248.261719 C 286.675781 248.316406 286.769531 248.375 286.84375 248.40625 L 286.972656 248.40625 C 287.03125 248.375 287.097656 248.351562 287.152344 248.316406 C 287.171875 248.316406 287.171875 248.316406 287.210938 248.285156 C 287.613281 248.046875 287.8125 246.101562 288.648438 243.925781 C 289.429688 242.242188 290.773438 243.128906 291.613281 244.253906 C 292.792969 245.609375 292.792969 245.9375 294.796875 247.964844 C 295.742188 248.875 296.457031 249.589844 297.039062 249.820312 C 297.054688 249.820312 297.074219 249.820312 297.074219 249.820312 C 297.089844 249.789062 297.105469 249.789062 297.144531 249.761719 C 297.164062 249.730469 297.179688 249.671875 297.21875 249.648438 C 297.253906 249.53125 297.328125 249.328125 297.382812 249.179688 C 297.402344 248.941406 297.65625 247.347656 297.804688 246.675781 C 299.222656 241.339844 303.082031 247.941406 305.027344 249.238281 C 306.390625 250.417969 306.941406 250.773438 307.320312 250.355469 C 307.320312 250.355469 307.320312 250.355469 307.335938 250.320312 C 307.574219 249.707031 307.460938 250.082031 307.605469 249.171875 C 307.863281 248.375 307.425781 246.960938 308.335938 245.8125 C 309.683594 244.84375 311.03125 247.28125 312.179688 248.167969 C 313.855469 249.851562 314.199219 250.445312 314.929688 250 C 315.003906 249.941406 315.054688 249.910156 315.09375 249.886719 C 315.09375 249.851562 315.152344 249.828125 315.242188 249.714844 C 315.316406 249.625 315.375 249.53125 315.421875 249.449219 C 315.421875 249.417969 315.421875 249.417969 315.421875 249.417969 C 315.496094 249.269531 315.570312 249.03125 315.605469 248.882812 C 315.753906 248.144531 315.964844 247.292969 316.277344 246.734375 C 316.640625 247.765625 316.984375 248.828125 317.3125 249.886719 C 317.910156 252.414062 318.714844 255.125 318.570312 257.867188 Z M 318.570312 257.867188 " fill-opacity="1" fill-rule="nonzero"/><g clip-path="url(#a4463244eb)"><path fill="#999999" d="M 319.152344 249.054688 C 318.9375 246.757812 316.695312 245.609375 315.636719 247.898438 C 315.539062 249.648438 316.589844 251.324219 316.671875 253.097656 C 316.679688 253.851562 317.140625 256.339844 316.515625 257.503906 C 316.492188 257.554688 316.484375 257.578125 316.476562 257.613281 C 316.457031 257.636719 316.457031 257.644531 316.441406 257.679688 C 316.375 257.785156 316.367188 257.808594 316.335938 257.859375 C 316.277344 257.917969 316.238281 257.957031 316.203125 257.988281 C 316.128906 257.972656 316.046875 257.949219 315.972656 257.925781 C 314.234375 256.921875 314.464844 255.609375 312.3125 254.394531 C 310.390625 254.007812 309.792969 255.839844 310.300781 257.390625 C 310.613281 259.394531 310.792969 259.558594 310.375 261.117188 C 310.375 261.125 310.367188 261.132812 310.367188 261.144531 C 310.332031 261.144531 310.308594 261.144531 310.277344 261.144531 C 310.101562 261.109375 309.929688 261.070312 309.765625 261.003906 C 309.414062 260.796875 308.402344 260.238281 308.230469 260.035156 C 307.253906 259.402344 305.40625 257.660156 304.636719 256.339844 C 303.945312 255.519531 303.582031 254.222656 302.484375 253.867188 C 301.636719 253.605469 300.652344 254.1875 300.4375 255.035156 C 300.25 256.042969 300.792969 257.003906 300.941406 258 C 301.152344 258.902344 301.261719 260.140625 301.160156 261.035156 C 300.921875 260.960938 300.890625 260.898438 300.070312 260.4375 C 299.535156 260.445312 295.472656 255.960938 296.277344 256.734375 C 294.402344 254.769531 293.855469 250.296875 290.957031 251.816406 C 289.257812 253.316406 291.578125 255.691406 291.859375 258.375 C 291.875 258.5 291.882812 258.515625 291.890625 258.554688 C 291.90625 258.710938 291.925781 258.875 291.925781 259.03125 C 291.957031 259.277344 291.90625 259.84375 291.890625 260.066406 C 291.882812 260.09375 291.882812 260.109375 291.875 260.132812 C 291.367188 259.953125 291.144531 259.722656 290.660156 259.328125 C 290.027344 258.84375 287.730469 256.085938 287.441406 255.738281 C 286.136719 254.253906 285.4375 252.09375 283.722656 251.035156 C 282.738281 250.550781 281.449219 251.289062 281.375 252.390625 C 281.777344 255.65625 283.03125 258.894531 282.875 261.101562 C 282.867188 261.144531 282.867188 261.160156 282.851562 261.21875 C 282.828125 261.332031 282.777344 261.445312 282.746094 261.554688 C 282.710938 261.601562 282.679688 261.652344 282.636719 261.710938 C 282.605469 261.703125 282.570312 261.691406 282.539062 261.675781 C 282.300781 261.554688 282.078125 261.414062 281.859375 261.265625 C 279.410156 259.582031 275.640625 254.542969 275.445312 254.238281 C 274.746094 252.816406 272.578125 252.695312 272.101562 254.34375 C 271.921875 255.238281 272.269531 256.035156 272.351562 256.914062 C 272.375 257.25 272.433594 257.570312 272.457031 257.890625 C 268.820312 254.746094 265.492188 248.820312 262.449219 243.398438 C 261.757812 242.136719 259.695312 242.308594 259.34375 243.753906 C 259.195312 244.960938 259.574219 246.222656 259.589844 247.449219 C 259.621094 247.667969 259.597656 248.097656 259.589844 248.300781 C 259.574219 248.382812 259.566406 248.457031 259.550781 248.539062 C 259.351562 248.417969 259.1875 248.300781 259.113281 248.242188 C 256.117188 245.648438 254.097656 241.238281 251.578125 237.027344 C 250.609375 236.042969 248.882812 236.625 248.605469 237.957031 C 248.398438 239.21875 248.195312 240.386719 247.921875 241.082031 C 247.914062 241.074219 247.90625 241.074219 247.898438 241.066406 C 244.007812 237.585938 241.097656 227.3125 239.128906 219.316406 C 237.542969 214.488281 236.910156 207.921875 235.894531 204.496094 C 234.925781 203.066406 232.460938 204.25 233.003906 205.933594 C 233.667969 211.476562 236.15625 221.550781 238.167969 228.503906 C 239.851562 233.710938 241.574219 239.246094 245.433594 243.285156 C 247.273438 245.171875 249.867188 244.886719 250.878906 242.546875 C 252.609375 245.664062 255.238281 249.6875 257.980469 251.453125 C 260.074219 252.71875 261.707031 251.757812 262.464844 250.097656 C 264.804688 254.039062 267.972656 258.6875 271.28125 261.28125 C 273.464844 262.703125 274.992188 261.488281 275.542969 259.664062 C 276.21875 260.453125 276.964844 261.289062 277.761719 262.078125 C 279.148438 263.34375 280.625 264.878906 282.597656 265.035156 C 285.863281 264.789062 286.339844 262.121094 286.070312 259.328125 C 287.8125 261.445312 289.9375 263.375 292.21875 263.492188 C 293.574219 263.433594 294.78125 262.414062 295.050781 261.085938 C 295.101562 260.863281 295.078125 260.640625 295.109375 260.410156 C 296.136719 261.570312 297.292969 262.652344 298.609375 263.402344 C 300.777344 264.917969 303.976562 264.976562 304.429688 261.792969 C 304.460938 261.5625 304.445312 261.339844 304.460938 261.109375 C 305.234375 261.847656 306.054688 262.554688 306.964844 263.144531 C 308.222656 264.066406 309.808594 264.707031 311.375 264.3125 C 313.15625 263.703125 313.757812 262.144531 313.871094 260.421875 C 314.570312 260.914062 315.351562 261.273438 316.21875 261.28125 C 317.566406 261.296875 318.796875 260.394531 319.375 259.203125 C 320.828125 256.027344 319.996094 252.316406 319.152344 249.054688 Z M 319.152344 249.054688 " fill-opacity="1" fill-rule="nonzero"/></g></svg>