<svg xmlns="http://www.w3.org/2000/svg" xmlns:xlink="http://www.w3.org/1999/xlink" width="500" zoomAndPan="magnify" viewBox="0 0 375 374.999991" height="500" preserveAspectRatio="xMidYMid meet" version="1.0"><path fill="#cccdcc" d="M 76.765625 70.773438 C 74.941406 70.261719 73.46875 71.140625 73.625 72.363281 C 74.109375 74.335938 75.574219 76.550781 76.773438 78.480469 C 75.417969 77.488281 73.960938 76.460938 73.089844 75.9375 C 64.921875 71.332031 69.910156 82.625 72.8125 87.519531 C 71.734375 86.558594 70.632812 85.574219 69.796875 84.890625 C 68.710938 83.875 66.441406 82.789062 65.734375 83.921875 C 65.292969 84.957031 66.171875 86.328125 66.617188 87.527344 C 67.75 90.335938 70.132812 94.472656 71.6875 97.171875 C 70.347656 96.230469 68.710938 95.070312 67.882812 94.464844 C 66.441406 93.296875 63.269531 91.691406 62.546875 93.257812 C 62.488281 94.914062 63.945312 96.828125 64.675781 98.59375 C 65.71875 100.753906 67.914062 104.175781 69 106.054688 C 62.242188 102.214844 54.171875 96.410156 59.015625 106.253906 C 59.933594 108.558594 62.121094 111.835938 63.203125 113.804688 C 62.167969 113.140625 60.773438 112.1875 59.664062 111.703125 C 57.914062 110.832031 56.015625 111.382812 56.679688 112.8125 C 59.554688 118.402344 63.582031 123.925781 67.90625 129.3125 C 54.914062 121.769531 62.644531 132.941406 66.625 138.089844 C 67.503906 139.222656 68.964844 140.722656 70.222656 141.972656 C 66.8125 140.648438 62.671875 139.492188 63.410156 142.570312 C 63.9375 143.800781 65.101562 144.925781 66.222656 146.042969 C 72.65625 152.429688 80.414062 158.21875 87.964844 164.046875 C 89.191406 164.964844 90.636719 166.03125 92.191406 167.140625 C 98.507812 171.671875 105.238281 175.980469 112.808594 178.960938 C 116.621094 180.308594 120.582031 181.277344 124.453125 181.761719 C 124.476562 181.769531 124.476562 181.769531 124.476562 181.769531 C 127.796875 182.214844 131.027344 182.304688 134.011719 181.984375 C 135.257812 181.949219 136.476562 181.851562 137.644531 181.703125 C 152.386719 179.390625 155.9375 167.050781 152.679688 155.796875 C 146.953125 140.148438 131.019531 124.558594 117.113281 110.539062 C 105.683594 99.011719 97.828125 87.101562 86.222656 77.035156 C 85.402344 76.3125 84.539062 75.601562 83.675781 74.902344 C 81.589844 73.398438 79.371094 71.652344 76.765625 70.773438 Z M 76.765625 70.773438 " fill-opacity="1" fill-rule="nonzero"/><path fill="#b0b0b0" d="M 76.765625 70.773438 C 74.941406 70.261719 73.46875 71.140625 73.625 72.363281 C 74.109375 74.335938 75.574219 76.550781 76.773438 78.480469 C 75.417969 77.488281 73.960938 76.460938 73.089844 75.9375 C 64.921875 71.332031 69.910156 82.625 72.8125 87.519531 C 71.734375 86.558594 70.632812 85.574219 69.796875 84.890625 C 68.710938 83.875 66.441406 82.789062 65.734375 83.921875 C 65.292969 84.957031 66.171875 86.328125 66.617188 87.527344 C 67.75 90.335938 70.132812 94.472656 71.6875 97.171875 C 70.347656 96.230469 68.710938 95.070312 67.882812 94.464844 C 66.441406 93.296875 63.269531 91.691406 62.546875 93.257812 C 62.488281 94.914062 63.945312 96.828125 64.675781 98.59375 C 65.71875 100.753906 67.914062 104.175781 69 106.054688 C 62.242188 102.214844 54.171875 96.410156 59.015625 106.253906 C 59.933594 108.558594 62.121094 111.835938 63.203125 113.804688 C 62.167969 113.140625 60.773438 112.1875 59.664062 111.703125 C 57.914062 110.832031 56.015625 111.382812 56.679688 112.8125 C 59.554688 118.402344 63.582031 123.925781 67.90625 129.3125 C 54.914062 121.769531 62.644531 132.941406 66.625 138.089844 C 67.503906 139.222656 68.964844 140.722656 70.222656 141.972656 C 66.8125 140.648438 62.671875 139.492188 63.410156 142.570312 C 63.9375 143.800781 65.101562 144.925781 66.222656 146.042969 C 72.65625 152.429688 80.414062 158.21875 87.964844 164.046875 C 89.191406 164.964844 90.636719 166.03125 92.191406 167.140625 C 92.296875 167.214844 92.402344 167.289062 92.511719 167.371094 C 100.046875 172.707031 87.867188 160.738281 84.800781 157.414062 C 83.085938 155.558594 81.316406 153.277344 79.929688 151.402344 C 78.613281 149.628906 78.03125 148.480469 80.554688 148.039062 C 80.996094 147.964844 81.449219 147.792969 81.636719 147.59375 C 82.828125 146.363281 80.035156 144.605469 78.800781 143.308594 C 76.097656 140.9375 73.386719 137.703125 73.082031 136.332031 C 73.058594 136.242188 73.082031 136.175781 73.082031 136.09375 C 73.335938 136.09375 73.59375 136.101562 73.839844 136.117188 C 78.761719 137.0625 79.664062 136.085938 76.140625 131.867188 C 73.082031 128.140625 68.078125 121.835938 69.105469 121.71875 C 69.136719 121.710938 69.136719 121.710938 69.171875 121.710938 C 69.566406 121.769531 69.449219 121.726562 70.496094 121.980469 C 72.917969 122.910156 75.136719 122.359375 74.152344 120.382812 C 72.367188 117.457031 69.476562 113.230469 69.613281 112.417969 L 69.648438 112.335938 C 69.679688 112.328125 69.707031 112.34375 69.835938 112.335938 C 69.851562 112.304688 73.050781 113.125 74.167969 113.335938 C 79.097656 114.339844 78.070312 111.507812 76.363281 108.960938 C 75.769531 107.820312 74.457031 105.867188 73.824219 104.027344 C 73.796875 103.9375 73.773438 103.832031 73.773438 103.757812 L 73.824219 103.640625 C 73.871094 103.601562 73.921875 103.542969 73.96875 103.503906 C 73.980469 103.488281 73.980469 103.488281 74.019531 103.460938 C 74.390625 103.175781 76.273438 103.707031 78.605469 103.742188 C 80.453125 103.632812 80.132812 102.058594 79.402344 100.867188 C 78.582031 99.265625 78.277344 99.144531 77.132812 96.53125 C 76.632812 95.316406 76.238281 94.390625 76.238281 93.765625 C 76.246094 93.75 76.253906 93.734375 76.253906 93.734375 C 76.289062 93.726562 76.296875 93.710938 76.335938 93.683594 C 76.371094 93.675781 76.4375 93.683594 76.476562 93.660156 C 76.601562 93.667969 76.820312 93.675781 76.976562 93.683594 C 77.207031 93.757812 78.777344 94.113281 79.460938 94.226562 C 84.949219 94.882812 80.242188 88.859375 79.757812 86.566406 C 79.164062 84.859375 79.039062 84.226562 79.566406 84.023438 C 79.566406 84.023438 79.566406 84.023438 79.601562 84.015625 C 80.265625 84.023438 79.863281 83.980469 80.765625 84.1875 C 81.605469 84.242188 82.753906 85.171875 84.160156 84.753906 C 85.566406 83.859375 83.789062 81.707031 83.394531 80.3125 C 82.453125 78.136719 82.03125 77.59375 82.714844 77.085938 C 82.796875 77.035156 82.847656 77.003906 82.886719 76.980469 C 82.910156 76.988281 82.960938 76.945312 83.101562 76.90625 C 83.207031 76.871094 83.3125 76.855469 83.414062 76.832031 C 83.4375 76.839844 83.4375 76.839844 83.4375 76.839844 C 83.601562 76.824219 83.847656 76.847656 83.996094 76.863281 C 84.734375 77.003906 85.605469 77.117188 86.246094 77.035156 C 85.425781 76.3125 84.5625 75.597656 83.699219 74.902344 C 81.589844 73.398438 79.371094 71.652344 76.765625 70.773438 Z M 76.765625 70.773438 " fill-opacity="1" fill-rule="nonzero"/><path fill="#f1b226" d="M 174.484375 337.148438 C 174.558594 336.34375 174.449219 330.359375 174.386719 328.832031 C 174.097656 322.378906 174.3125 306.746094 174.148438 292.972656 C 174.023438 282.933594 173.53125 273.753906 173.671875 269.945312 C 173.828125 265.914062 172.863281 265.570312 169.035156 265.199219 C 167.285156 265.085938 166.644531 265.355469 165.976562 265.660156 C 165.066406 266.070312 165.015625 267.5 165.007812 267.84375 C 164.925781 269.960938 164.566406 284.640625 164.425781 292.175781 C 164.046875 312.402344 165.519531 332.148438 165.535156 352.277344 C 166.25 354.433594 172.445312 354.410156 173.589844 352.367188 C 175.132812 347.5625 174.34375 342.621094 174.484375 337.148438 Z M 174.484375 337.148438 " fill-opacity="1" fill-rule="nonzero"/><path fill="#f1b226" d="M 174.925781 350.394531 C 174.664062 349.738281 174.550781 346.957031 174.53125 346.496094 C 174.484375 345.289062 172.675781 342.746094 170.652344 342.554688 C 169.003906 342.402344 167.5 342.738281 166.683594 343.484375 C 166.207031 343.917969 165.425781 345.265625 165.484375 346.324219 C 165.640625 349.417969 163.585938 351.070312 161.96875 352.332031 C 160.6875 353.335938 158.121094 354.023438 156.601562 354.574219 C 154.382812 355.378906 150.742188 355.8125 147.816406 356.988281 C 147.070312 357.085938 142.722656 359.507812 143.453125 361.667969 C 143.625 362.167969 143.980469 363.003906 145.628906 363.195312 C 148.359375 363.507812 151.292969 361.847656 153.042969 362.71875 C 154.019531 363.210938 151.03125 365.730469 150.125 367.683594 C 149.097656 369.910156 151.375 370.84375 152.304688 370.8125 C 153.332031 370.773438 154.449219 370.289062 155.335938 369.777344 C 158.492188 367.867188 160.875 365.394531 162.140625 366.167969 C 162.90625 366.632812 162.328125 367.847656 162.199219 368.71875 C 161.703125 371.824219 163.742188 374.894531 166.445312 373.347656 C 169.855469 371.410156 170.726562 367.0625 173.226562 364.179688 C 173.992188 363.128906 174.515625 362.046875 175.414062 361.347656 C 175.742188 361.09375 177.769531 359.84375 178.125 359.722656 C 182.875 357.070312 176.355469 354.042969 174.925781 350.394531 Z M 174.925781 350.394531 " fill-opacity="1" fill-rule="nonzero"/><path fill="#f1b226" d="M 206.121094 337.148438 C 206.046875 336.34375 206.15625 330.359375 206.222656 328.832031 C 206.507812 322.378906 206.296875 306.746094 206.460938 292.972656 C 206.582031 282.933594 207.074219 273.753906 206.9375 269.945312 C 206.78125 265.914062 207.742188 265.570312 211.570312 265.199219 C 213.320312 265.085938 213.960938 265.355469 214.628906 265.660156 C 215.539062 266.070312 215.589844 267.5 215.597656 267.84375 C 215.679688 269.960938 216.042969 284.640625 216.179688 292.175781 C 216.558594 312.402344 215.089844 332.148438 215.070312 352.277344 C 214.355469 354.433594 208.160156 354.410156 207.019531 352.367188 C 205.464844 347.5625 206.253906 342.621094 206.121094 337.148438 Z M 206.121094 337.148438 " fill-opacity="1" fill-rule="nonzero"/><path fill="#f1b226" d="M 205.679688 350.394531 C 205.941406 349.738281 206.058594 346.957031 206.074219 346.496094 C 206.121094 345.289062 207.929688 342.746094 209.953125 342.554688 C 211.605469 342.402344 213.109375 342.738281 213.921875 343.484375 C 214.398438 343.917969 215.179688 345.265625 215.121094 346.324219 C 214.964844 349.417969 217.019531 351.070312 218.636719 352.332031 C 219.921875 353.335938 222.484375 354.023438 224.003906 354.574219 C 226.222656 355.378906 229.863281 355.8125 232.789062 356.988281 C 233.539062 357.085938 237.886719 359.507812 237.152344 361.667969 C 236.980469 362.167969 236.628906 363.003906 234.976562 363.195312 C 232.246094 363.507812 229.3125 361.847656 227.5625 362.71875 C 226.585938 363.210938 229.578125 365.730469 230.480469 367.683594 C 231.507812 369.910156 229.230469 370.84375 228.304688 370.8125 C 227.277344 370.773438 226.15625 370.289062 225.269531 369.777344 C 222.113281 367.867188 219.730469 365.394531 218.464844 366.167969 C 217.703125 366.632812 218.277344 367.847656 218.410156 368.71875 C 218.902344 371.824219 216.863281 374.894531 214.160156 373.347656 C 210.75 371.410156 209.878906 367.0625 207.378906 364.179688 C 206.617188 363.128906 206.089844 362.046875 205.195312 361.347656 C 204.867188 361.09375 202.835938 359.84375 202.480469 359.722656 C 197.722656 357.070312 204.242188 354.042969 205.679688 350.394531 Z M 205.679688 350.394531 " fill-opacity="1" fill-rule="nonzero"/><path fill="#f1f1f1" d="M 275.570312 203.515625 C 275.160156 192.746094 272.566406 182.066406 268.332031 172.199219 C 257.335938 146.527344 234.976562 126.503906 209.484375 125.855469 C 205.84375 125.757812 202.136719 126.054688 198.390625 126.792969 C 195.710938 127.226562 193 127.449219 190.296875 127.449219 C 187.589844 127.449219 184.878906 127.226562 182.199219 126.792969 C 178.453125 126.0625 174.746094 125.757812 171.105469 125.855469 C 145.613281 126.503906 123.253906 146.535156 112.257812 172.199219 C 108.027344 182.058594 105.4375 192.746094 105.019531 203.515625 C 104.910156 205.816406 104.871094 208.113281 104.886719 210.429688 C 104.605469 245.046875 114.179688 283.152344 138.652344 299.464844 C 148.902344 306.296875 167.917969 316.246094 190.296875 315.710938 C 212.671875 316.238281 231.679688 306.296875 241.9375 299.464844 C 266.410156 283.144531 275.984375 245.039062 275.703125 210.429688 C 275.71875 208.113281 275.679688 205.804688 275.570312 203.515625 Z M 275.570312 203.515625 " fill-opacity="1" fill-rule="nonzero"/><path fill="#f1f1f1" d="M 249.242188 137.039062 C 247.328125 132.777344 244.417969 123.707031 241.707031 113.976562 C 240.179688 108.289062 238.976562 102.507812 238.015625 96.6875 C 236.875 83.339844 238.207031 69.910156 239.570312 56.628906 C 241.058594 45.75 241.796875 34.265625 236.683594 24.160156 C 233.949219 18.035156 229.109375 13.242188 223.710938 9.441406 C 214.042969 2.609375 213.527344 2.257812 200.097656 0.355469 C 190.894531 0.0820312 181.847656 2.75 173.703125 6.953125 C 173.226562 7.167969 172.699219 7.414062 172.214844 7.675781 C 167.746094 9.992188 163.265625 12.683594 160.070312 16.664062 C 153.773438 23.726562 150.398438 32.609375 149.648438 42 C 147.265625 59.527344 149.105469 77.28125 148.277344 94.882812 C 148.300781 105.890625 138.039062 130.90625 135.808594 134.855469 C 134.050781 137.964844 132.128906 140.996094 130.171875 143.984375 C 129.128906 145.460938 127.878906 146.953125 126.859375 148.53125 C 126.070312 149.546875 125.375 150.535156 124.847656 151.460938 C 121.980469 158.046875 122.882812 164.046875 130.855469 168.863281 C 136.476562 171.753906 143.007812 170.605469 149.03125 169.957031 C 155.863281 168.980469 162.789062 169.375 169.601562 170.269531 C 184.453125 173.503906 231.03125 177.296875 248.484375 168.265625 C 264.980469 159.25 256.605469 154.5625 249.242188 137.039062 Z M 249.242188 137.039062 " fill-opacity="1" fill-rule="nonzero"/><path fill="#f1b226" d="M 211.175781 70.3125 C 211.128906 76.191406 208.546875 82.050781 205.957031 87.222656 C 205.011719 89.136719 203.96875 90.703125 202.859375 92 C 202.679688 92.257812 202.449219 92.484375 202.195312 92.714844 C 199.539062 95.457031 196.492188 96.523438 193.46875 96.058594 C 188.898438 96.746094 184.28125 93.980469 180.953125 87.222656 C 178.246094 81.871094 175.59375 75.714844 175.773438 69.625 C 175.796875 68.078125 176.027344 66.554688 176.488281 65.035156 C 177.253906 62.890625 179.117188 61.667969 181.015625 60.558594 C 181.691406 60.167969 182.355469 59.773438 182.980469 59.402344 C 185.035156 58.253906 186.835938 56.675781 188.847656 55.503906 C 189.613281 55.066406 192.101562 54.097656 193.605469 54.097656 C 195.085938 54.097656 196.859375 54.722656 198.851562 55.988281 C 200.558594 57.070312 202.152344 58.386719 203.929688 59.402344 C 204.578125 59.773438 205.269531 60.167969 205.933594 60.578125 C 207.832031 61.683594 209.671875 62.90625 210.460938 65.027344 C 210.972656 66.78125 211.203125 68.53125 211.175781 70.3125 Z M 211.175781 70.3125 " fill-opacity="1" fill-rule="nonzero"/><path fill="#000000" d="M 224.382812 42.992188 C 224.382812 43.550781 224.332031 44.105469 224.222656 44.652344 C 224.117188 45.199219 223.960938 45.730469 223.753906 46.246094 C 223.546875 46.761719 223.292969 47.253906 222.992188 47.71875 C 222.691406 48.183594 222.351562 48.613281 221.96875 49.007812 C 221.585938 49.402344 221.167969 49.753906 220.71875 50.0625 C 220.269531 50.375 219.792969 50.636719 219.292969 50.851562 C 218.792969 51.0625 218.277344 51.226562 217.75 51.332031 C 217.21875 51.441406 216.679688 51.496094 216.140625 51.496094 C 215.597656 51.496094 215.0625 51.441406 214.53125 51.332031 C 214 51.226562 213.484375 51.0625 212.984375 50.851562 C 212.484375 50.636719 212.011719 50.375 211.5625 50.0625 C 211.109375 49.753906 210.695312 49.402344 210.3125 49.007812 C 209.929688 48.613281 209.585938 48.183594 209.285156 47.71875 C 208.984375 47.253906 208.730469 46.761719 208.523438 46.246094 C 208.316406 45.730469 208.160156 45.199219 208.054688 44.652344 C 207.949219 44.105469 207.898438 43.550781 207.898438 42.992188 C 207.898438 42.433594 207.949219 41.882812 208.054688 41.332031 C 208.160156 40.785156 208.316406 40.253906 208.523438 39.738281 C 208.730469 39.222656 208.984375 38.730469 209.285156 38.265625 C 209.585938 37.804688 209.929688 37.375 210.3125 36.980469 C 210.695312 36.582031 211.109375 36.230469 211.5625 35.921875 C 212.011719 35.609375 212.484375 35.347656 212.984375 35.136719 C 213.484375 34.921875 214 34.761719 214.53125 34.652344 C 215.0625 34.542969 215.597656 34.488281 216.140625 34.488281 C 216.679688 34.488281 217.21875 34.542969 217.75 34.652344 C 218.277344 34.761719 218.792969 34.921875 219.292969 35.136719 C 219.792969 35.347656 220.269531 35.609375 220.71875 35.921875 C 221.167969 36.230469 221.585938 36.582031 221.96875 36.980469 C 222.351562 37.375 222.691406 37.804688 222.992188 38.265625 C 223.292969 38.730469 223.546875 39.222656 223.753906 39.738281 C 223.960938 40.253906 224.117188 40.785156 224.222656 41.332031 C 224.332031 41.882812 224.382812 42.433594 224.382812 42.992188 Z M 224.382812 42.992188 " fill-opacity="1" fill-rule="nonzero"/><path fill="#ffffff" d="M 215.675781 37.625 C 215.769531 37.792969 215.804688 37.988281 215.785156 38.199219 C 215.765625 38.414062 215.691406 38.632812 215.5625 38.859375 C 215.433594 39.082031 215.261719 39.296875 215.042969 39.496094 C 214.828125 39.699219 214.582031 39.871094 214.308594 40.019531 C 214.035156 40.167969 213.753906 40.277344 213.464844 40.347656 C 213.179688 40.417969 212.90625 40.445312 212.648438 40.429688 C 212.390625 40.410156 212.164062 40.351562 211.976562 40.25 C 211.785156 40.152344 211.644531 40.015625 211.550781 39.84375 C 211.460938 39.671875 211.425781 39.480469 211.445312 39.265625 C 211.464844 39.054688 211.539062 38.832031 211.664062 38.609375 C 211.792969 38.382812 211.964844 38.171875 212.183594 37.96875 C 212.402344 37.769531 212.648438 37.59375 212.921875 37.449219 C 213.195312 37.300781 213.472656 37.191406 213.761719 37.121094 C 214.050781 37.050781 214.324219 37.023438 214.582031 37.039062 C 214.839844 37.054688 215.0625 37.113281 215.253906 37.214844 C 215.441406 37.316406 215.582031 37.453125 215.675781 37.625 Z M 215.675781 37.625 " fill-opacity="1" fill-rule="nonzero"/><path fill="#000000" d="M 182.28125 42.992188 C 182.28125 43.550781 182.230469 44.105469 182.125 44.652344 C 182.019531 45.199219 181.863281 45.730469 181.65625 46.246094 C 181.449219 46.761719 181.195312 47.253906 180.894531 47.71875 C 180.59375 48.183594 180.25 48.613281 179.867188 49.007812 C 179.484375 49.402344 179.070312 49.753906 178.621094 50.0625 C 178.167969 50.375 177.695312 50.636719 177.195312 50.851562 C 176.695312 51.0625 176.179688 51.226562 175.648438 51.332031 C 175.117188 51.441406 174.582031 51.496094 174.039062 51.496094 C 173.5 51.496094 172.960938 51.441406 172.433594 51.332031 C 171.902344 51.226562 171.386719 51.0625 170.886719 50.851562 C 170.386719 50.636719 169.910156 50.375 169.460938 50.0625 C 169.011719 49.753906 168.59375 49.402344 168.210938 49.007812 C 167.828125 48.613281 167.488281 48.183594 167.1875 47.71875 C 166.886719 47.253906 166.632812 46.761719 166.425781 46.246094 C 166.21875 45.730469 166.0625 45.199219 165.957031 44.652344 C 165.851562 44.105469 165.796875 43.550781 165.796875 42.992188 C 165.796875 42.433594 165.851562 41.882812 165.957031 41.332031 C 166.0625 40.785156 166.21875 40.253906 166.425781 39.738281 C 166.632812 39.222656 166.886719 38.730469 167.1875 38.265625 C 167.488281 37.804688 167.828125 37.375 168.210938 36.980469 C 168.59375 36.582031 169.011719 36.230469 169.460938 35.921875 C 169.910156 35.609375 170.386719 35.347656 170.886719 35.136719 C 171.386719 34.921875 171.902344 34.761719 172.433594 34.652344 C 172.960938 34.542969 173.5 34.488281 174.039062 34.488281 C 174.582031 34.488281 175.117188 34.542969 175.648438 34.652344 C 176.179688 34.761719 176.695312 34.921875 177.195312 35.136719 C 177.695312 35.347656 178.167969 35.609375 178.621094 35.921875 C 179.070312 36.230469 179.484375 36.582031 179.867188 36.980469 C 180.25 37.375 180.59375 37.804688 180.894531 38.265625 C 181.195312 38.730469 181.449219 39.222656 181.65625 39.738281 C 181.863281 40.253906 182.019531 40.785156 182.125 41.332031 C 182.230469 41.882812 182.28125 42.433594 182.28125 42.992188 Z M 182.28125 42.992188 " fill-opacity="1" fill-rule="nonzero"/><path fill="#ffffff" d="M 177.242188 37.433594 C 177.515625 37.578125 177.761719 37.753906 177.980469 37.953125 C 178.195312 38.15625 178.371094 38.367188 178.496094 38.59375 C 178.625 38.820312 178.699219 39.039062 178.71875 39.25 C 178.738281 39.464844 178.703125 39.65625 178.609375 39.828125 C 178.519531 40 178.378906 40.136719 178.1875 40.234375 C 178 40.335938 177.773438 40.394531 177.515625 40.414062 C 177.257812 40.429688 176.984375 40.402344 176.695312 40.332031 C 176.410156 40.261719 176.128906 40.152344 175.855469 40.003906 C 175.582031 39.855469 175.335938 39.683594 175.121094 39.480469 C 174.902344 39.28125 174.730469 39.066406 174.601562 38.84375 C 174.472656 38.617188 174.398438 38.398438 174.378906 38.183594 C 174.359375 37.972656 174.394531 37.777344 174.488281 37.609375 C 174.578125 37.4375 174.71875 37.300781 174.910156 37.199219 C 175.101562 37.097656 175.324219 37.039062 175.582031 37.023438 C 175.839844 37.007812 176.113281 37.035156 176.402344 37.105469 C 176.691406 37.175781 176.96875 37.285156 177.242188 37.433594 Z M 177.242188 37.433594 " fill-opacity="1" fill-rule="nonzero"/><path fill="#cccdcc" d="M 318.945312 257.851562 C 318.75 259.742188 317.375 260.769531 316.308594 260.183594 C 314.648438 259.003906 313.136719 256.828125 311.789062 254.996094 C 312.207031 256.621094 312.625 258.355469 312.792969 259.355469 C 314.046875 268.640625 305.394531 259.824219 301.910156 255.316406 C 302.402344 256.671875 302.914062 258.058594 303.242188 259.085938 C 303.792969 260.472656 303.949219 262.976562 302.640625 263.207031 C 301.515625 263.238281 300.5625 261.910156 299.617188 261.054688 C 297.433594 258.960938 294.464844 255.21875 292.535156 252.773438 C 292.921875 254.363281 293.390625 256.308594 293.644531 257.3125 C 294.195312 259.078125 294.515625 262.613281 292.789062 262.703125 C 291.21875 262.148438 289.988281 260.085938 288.613281 258.757812 C 286.996094 256.992188 284.628906 253.691406 283.273438 251.976562 C 284.347656 259.667969 286.75 269.304688 279.394531 261.171875 C 277.585938 259.460938 275.351562 256.21875 273.929688 254.480469 C 274.167969 255.6875 274.527344 257.335938 274.570312 258.542969 C 274.734375 260.488281 273.507812 262.046875 272.441406 260.898438 C 268.308594 256.152344 264.667969 250.382812 261.257812 244.367188 C 263.460938 259.214844 255.941406 247.902344 252.621094 242.304688 C 251.886719 241.066406 251.035156 239.152344 250.34375 237.527344 C 250.308594 241.179688 249.851562 245.449219 247.261719 243.625 C 246.316406 242.683594 245.691406 241.179688 245.074219 239.734375 C 241.527344 231.394531 239.011719 222.054688 236.390625 212.890625 C 235.988281 211.421875 235.535156 209.679688 235.074219 207.824219 C 233.199219 200.28125 231.6875 192.449219 231.722656 184.316406 C 231.886719 180.277344 232.453125 176.246094 233.429688 172.46875 C 233.429688 172.4375 233.429688 172.4375 233.429688 172.4375 C 234.253906 169.195312 235.363281 166.164062 236.765625 163.511719 C 237.261719 162.363281 237.804688 161.269531 238.371094 160.238281 C 245.988281 147.421875 258.773438 148.6875 268.027344 155.878906 C 280.453125 166.984375 289.050781 187.550781 296.9375 205.640625 C 303.421875 220.519531 311.582031 232.222656 316.652344 246.714844 C 317.015625 247.746094 317.359375 248.808594 317.6875 249.867188 C 318.289062 252.402344 319.085938 255.113281 318.945312 257.851562 Z M 318.945312 257.851562 " fill-opacity="1" fill-rule="nonzero"/><path fill="#b0b0b0" d="M 318.945312 257.851562 C 318.75 259.742188 317.375 260.769531 316.308594 260.183594 C 314.648438 259.003906 313.136719 256.828125 311.789062 254.996094 C 312.207031 256.621094 312.625 258.355469 312.792969 259.355469 C 314.046875 268.640625 305.394531 259.824219 301.910156 255.316406 C 302.402344 256.671875 302.914062 258.058594 303.242188 259.085938 C 303.792969 260.472656 303.949219 262.976562 302.640625 263.207031 C 301.515625 263.238281 300.5625 261.910156 299.617188 261.054688 C 297.433594 258.960938 294.464844 255.21875 292.535156 252.773438 C 292.921875 254.363281 293.390625 256.308594 293.644531 257.3125 C 294.195312 259.078125 294.515625 262.613281 292.789062 262.703125 C 291.21875 262.148438 289.988281 260.085938 288.613281 258.757812 C 286.996094 256.992188 284.628906 253.691406 283.273438 251.976562 C 284.347656 259.667969 286.75 269.304688 279.394531 261.171875 C 277.585938 259.460938 275.351562 256.21875 273.929688 254.480469 C 274.167969 255.6875 274.527344 257.335938 274.570312 258.542969 C 274.734375 260.488281 273.507812 262.046875 272.441406 260.898438 C 268.308594 256.152344 264.667969 250.382812 261.257812 244.367188 C 263.460938 259.214844 255.941406 247.902344 252.621094 242.304688 C 251.886719 241.066406 251.035156 239.152344 250.34375 237.527344 C 250.308594 241.179688 249.851562 245.449219 247.261719 243.625 C 246.316406 242.683594 245.691406 241.179688 245.074219 239.734375 C 241.527344 231.394531 239.011719 222.054688 236.390625 212.890625 C 235.988281 211.421875 235.535156 209.679688 235.074219 207.824219 C 235.042969 207.703125 235.007812 207.570312 234.984375 207.449219 C 232.804688 198.484375 239.4375 214.214844 241.386719 218.285156 C 242.480469 220.566406 243.941406 223.046875 245.164062 225.03125 C 246.324219 226.914062 247.179688 227.882812 248.527344 225.699219 C 248.765625 225.320312 249.085938 224.957031 249.339844 224.851562 C 250.925781 224.203125 251.527344 227.445312 252.273438 229.0625 C 253.472656 232.453125 255.480469 236.164062 256.644531 236.960938 C 256.71875 237.019531 256.792969 237.019531 256.867188 237.050781 C 256.957031 236.8125 257.050781 236.582031 257.125 236.34375 C 258.066406 231.425781 259.308594 230.953125 261.929688 235.785156 C 264.265625 240 268.265625 246.984375 268.757812 246.074219 C 268.777344 246.039062 268.777344 246.039062 268.792969 246.015625 C 268.882812 245.628906 268.882812 245.753906 269.03125 244.6875 C 269.0625 242.089844 270.394531 240.234375 271.875 241.886719 C 273.929688 244.628906 276.789062 248.871094 277.59375 249.042969 L 277.683594 249.042969 C 277.699219 249.011719 277.699219 248.988281 277.757812 248.863281 C 277.792969 248.863281 278.210938 245.597656 278.433594 244.472656 C 279.328125 239.523438 281.585938 241.523438 283.3125 244.0625 C 284.152344 245.03125 285.484375 246.976562 286.953125 248.25 C 287.027344 248.304688 287.117188 248.363281 287.191406 248.394531 L 287.324219 248.394531 C 287.382812 248.363281 287.445312 248.339844 287.503906 248.304688 C 287.519531 248.304688 287.519531 248.304688 287.5625 248.273438 C 287.964844 248.035156 288.160156 246.089844 289 243.914062 C 289.78125 242.230469 291.128906 243.117188 291.96875 244.242188 C 293.148438 245.597656 293.148438 245.925781 295.15625 247.953125 C 296.101562 248.863281 296.816406 249.578125 297.398438 249.808594 C 297.414062 249.808594 297.433594 249.808594 297.433594 249.808594 C 297.449219 249.777344 297.464844 249.777344 297.503906 249.75 C 297.523438 249.71875 297.539062 249.660156 297.578125 249.636719 C 297.613281 249.519531 297.6875 249.316406 297.746094 249.167969 C 297.761719 248.929688 298.015625 247.335938 298.164062 246.664062 C 299.585938 241.328125 303.449219 247.929688 305.394531 249.226562 C 306.757812 250.40625 307.308594 250.761719 307.6875 250.34375 C 307.6875 250.34375 307.6875 250.34375 307.703125 250.308594 C 307.941406 249.695312 307.828125 250.070312 307.976562 249.160156 C 308.230469 248.363281 307.792969 246.953125 308.707031 245.800781 C 310.054688 244.832031 311.402344 247.273438 312.554688 248.160156 C 314.230469 249.839844 314.574219 250.433594 315.304688 249.988281 C 315.378906 249.929688 315.429688 249.898438 315.46875 249.875 C 315.46875 249.839844 315.527344 249.816406 315.617188 249.703125 C 315.691406 249.609375 315.75 249.519531 315.800781 249.4375 C 315.800781 249.40625 315.800781 249.40625 315.800781 249.40625 C 315.871094 249.257812 315.945312 249.019531 315.980469 248.871094 C 316.128906 248.132812 316.339844 247.28125 316.652344 246.722656 C 317.015625 247.757812 317.359375 248.816406 317.6875 249.875 C 318.289062 252.402344 319.085938 255.113281 318.945312 257.851562 Z M 318.945312 257.851562 " fill-opacity="1" fill-rule="nonzero"/><path fill="#daa32b" d="M 211.175781 70.3125 C 211.128906 76.191406 208.546875 82.050781 205.957031 87.222656 C 205.011719 89.136719 203.96875 90.703125 202.859375 92 C 202.679688 92.257812 202.449219 92.484375 202.195312 92.714844 C 199.539062 95.457031 196.492188 96.523438 193.46875 96.058594 C 188.898438 96.746094 184.28125 93.980469 180.953125 87.222656 C 178.246094 81.871094 175.59375 75.714844 175.773438 69.625 C 176.539062 72.019531 177.277344 74.328125 178.132812 76.082031 C 181.230469 84.113281 188.386719 96.542969 195.75 92.921875 C 202.5 89.851562 206.835938 79.886719 209.910156 73.589844 C 210.371094 72.503906 210.789062 71.421875 211.175781 70.3125 Z M 211.175781 70.3125 " fill-opacity="1" fill-rule="nonzero"/><path fill="#999999" d="M 319.53125 249.042969 C 319.316406 246.746094 317.074219 245.597656 316.011719 247.886719 C 315.914062 249.636719 316.964844 251.3125 317.046875 253.082031 C 317.054688 253.839844 317.515625 256.328125 316.890625 257.492188 C 316.867188 257.542969 316.859375 257.566406 316.851562 257.597656 C 316.835938 257.625 316.835938 257.632812 316.816406 257.664062 C 316.753906 257.769531 316.742188 257.796875 316.710938 257.84375 C 316.652344 257.902344 316.613281 257.945312 316.578125 257.976562 C 316.503906 257.960938 316.421875 257.933594 316.347656 257.910156 C 314.605469 256.910156 314.835938 255.597656 312.683594 254.378906 C 310.761719 253.996094 310.160156 255.824219 310.671875 257.378906 C 310.984375 259.378906 311.164062 259.542969 310.746094 261.105469 C 310.746094 261.113281 310.738281 261.121094 310.738281 261.128906 C 310.703125 261.128906 310.679688 261.128906 310.644531 261.128906 C 310.472656 261.097656 310.300781 261.054688 310.136719 260.988281 C 309.785156 260.785156 308.773438 260.226562 308.601562 260.019531 C 307.621094 259.386719 305.773438 257.648438 305 256.328125 C 304.308594 255.503906 303.949219 254.207031 302.847656 253.855469 C 302 253.59375 301.015625 254.175781 300.800781 255.019531 C 300.613281 256.03125 301.15625 256.992188 301.300781 257.984375 C 301.515625 258.886719 301.625 260.128906 301.523438 261.023438 C 301.285156 260.949219 301.253906 260.882812 300.429688 260.421875 C 299.898438 260.429688 295.828125 255.949219 296.636719 256.71875 C 294.761719 254.757812 294.210938 250.285156 291.308594 251.804688 C 289.609375 253.304688 291.933594 255.679688 292.214844 258.363281 C 292.230469 258.484375 292.238281 258.5 292.246094 258.542969 C 292.261719 258.699219 292.277344 258.863281 292.277344 259.019531 C 292.3125 259.265625 292.261719 259.832031 292.246094 260.054688 C 292.238281 260.078125 292.238281 260.101562 292.230469 260.117188 C 291.71875 259.9375 291.5 259.707031 291.015625 259.316406 C 290.382812 258.832031 288.078125 256.070312 287.792969 255.726562 C 286.484375 254.242188 285.789062 252.082031 284.070312 251.023438 C 283.082031 250.539062 281.792969 251.277344 281.71875 252.378906 C 282.121094 255.644531 283.378906 258.878906 283.222656 261.085938 C 283.214844 261.128906 283.214844 261.144531 283.199219 261.203125 C 283.171875 261.316406 283.125 261.433594 283.089844 261.539062 C 283.058594 261.589844 283.027344 261.636719 282.984375 261.695312 C 282.953125 261.6875 282.917969 261.679688 282.886719 261.664062 C 282.648438 261.539062 282.425781 261.398438 282.203125 261.253906 C 279.753906 259.570312 275.984375 254.527344 275.785156 254.226562 C 275.085938 252.804688 272.917969 252.679688 272.441406 254.332031 C 272.261719 255.226562 272.605469 256.023438 272.6875 256.902344 C 272.710938 257.238281 272.769531 257.558594 272.792969 257.878906 C 269.152344 254.734375 265.824219 248.808594 262.777344 243.390625 C 262.085938 242.125 260.023438 242.296875 259.671875 243.742188 C 259.523438 244.949219 259.902344 246.210938 259.917969 247.4375 C 259.949219 247.65625 259.925781 248.085938 259.917969 248.289062 C 259.902344 248.371094 259.890625 248.445312 259.875 248.527344 C 259.679688 248.40625 259.515625 248.289062 259.441406 248.230469 C 256.441406 245.636719 254.417969 241.230469 251.894531 237.019531 C 250.925781 236.03125 249.199219 236.617188 248.921875 237.945312 C 248.714844 239.210938 248.511719 240.375 248.238281 241.074219 C 248.230469 241.066406 248.222656 241.066406 248.214844 241.058594 C 244.320312 237.578125 241.410156 227.308594 239.4375 219.3125 C 237.851562 214.484375 237.21875 207.917969 236.199219 204.492188 C 235.230469 203.066406 232.765625 204.246094 233.308594 205.929688 C 233.972656 211.472656 236.464844 221.542969 238.476562 228.496094 C 240.160156 233.703125 241.886719 239.234375 245.75 243.273438 C 247.589844 245.160156 250.1875 244.875 251.199219 242.535156 C 252.933594 245.65625 255.5625 249.675781 258.304688 251.441406 C 260.402344 252.707031 262.039062 251.746094 262.792969 250.085938 C 265.136719 254.027344 268.308594 258.675781 271.621094 261.269531 C 273.804688 262.6875 275.332031 261.472656 275.882812 259.652344 C 276.558594 260.4375 277.304688 261.277344 278.101562 262.066406 C 279.492188 263.328125 280.972656 264.863281 282.945312 265.019531 C 286.214844 264.773438 286.691406 262.105469 286.417969 259.316406 C 288.160156 261.433594 290.289062 263.363281 292.574219 263.476562 C 293.929688 263.417969 295.140625 262.402344 295.410156 261.070312 C 295.460938 260.851562 295.433594 260.628906 295.46875 260.398438 C 296.496094 261.554688 297.652344 262.640625 298.96875 263.386719 C 301.136719 264.90625 304.34375 264.960938 304.796875 261.777344 C 304.828125 261.546875 304.8125 261.324219 304.828125 261.097656 C 305.601562 261.835938 306.421875 262.539062 307.335938 263.132812 C 308.589844 264.050781 310.179688 264.691406 311.746094 264.296875 C 313.53125 263.691406 314.128906 262.128906 314.246094 260.40625 C 314.945312 260.898438 315.726562 261.261719 316.597656 261.269531 C 317.945312 261.285156 319.175781 260.382812 319.75 259.191406 C 321.207031 256.015625 320.375 252.304688 319.53125 249.042969 Z M 319.53125 249.042969 " fill-opacity="1" fill-rule="nonzero"/><path fill="#f1f1f1" d="M 488.648438 433.96875 C 486.738281 429.707031 483.832031 420.636719 481.121094 410.90625 C 479.59375 405.214844 478.394531 399.433594 477.433594 393.613281 C 476.292969 380.261719 477.621094 366.832031 478.984375 353.546875 C 480.472656 342.664062 481.210938 331.179688 476.105469 321.070312 C 473.371094 314.945312 468.535156 310.152344 463.140625 306.347656 C 453.484375 299.519531 452.964844 299.164062 439.550781 297.261719 C 430.351562 296.988281 421.3125 299.65625 413.175781 303.863281 C 412.699219 304.074219 412.175781 304.320312 411.691406 304.585938 C 407.222656 306.898438 402.75 309.59375 399.554688 313.574219 C 393.265625 320.636719 389.890625 329.519531 389.144531 338.914062 C 386.761719 356.445312 388.601562 374.203125 387.773438 391.808594 C 387.796875 402.816406 377.542969 427.835938 375.316406 431.785156 C 373.558594 434.898438 371.636719 437.929688 369.683594 440.917969 C 368.640625 442.394531 367.394531 443.890625 366.375 445.464844 C 365.585938 446.484375 364.886719 447.46875 364.363281 448.398438 C 361.496094 454.980469 362.402344 460.984375 370.363281 465.804688 C 375.980469 468.695312 382.507812 467.542969 388.527344 466.894531 C 395.351562 465.917969 402.273438 466.3125 409.078125 467.207031 C 423.914062 470.441406 470.453125 474.234375 487.894531 465.203125 C 504.375 456.1875 496.015625 451.5 488.648438 433.96875 Z M 488.648438 433.96875 " fill-opacity="1" fill-rule="nonzero"/></svg>